<?xml version="1.0" standalone="no"?>
<!DOCTYPE svg PUBLIC "-//W3C//DTD SVG 1.1//EN" "http://www.w3.org/Graphics/SVG/1.1/DTD/svg11.dtd" >
<svg xmlns="http://www.w3.org/2000/svg" xmlns:xlink="http://www.w3.org/1999/xlink" version="1.1">
<metadata>
Created by FontForge 20150318 at Tue Sep  8 03:26:21 2015
 By uniteet7
Copyright (c) 1985, 1987, 1991, 1993 Adobe Systems Incorporated. All Rights Reserved.Helvetica is a trademark of Linotype-Hell AG and/or its subsidiaries.
</metadata>
<defs>
<font id="HelveticaLTCondensedBold" horiz-adv-x="500" >
  <font-face 
    font-family="HelveticaLTCondensedBold"
    font-weight="700"
    font-stretch="normal"
    units-per-em="1000"
    panose-1="2 0 8 6 5 0 0 2 0 4"
    ascent="800"
    descent="-200"
    x-height="564"
    cap-height="750"
    bbox="-169 -250 1091 991"
    underline-thickness="50"
    underline-position="-75"
    unicode-range="U+0020-FB02"
  />
<missing-glyph horiz-adv-x="250" 
 />
    <glyph glyph-name=".notdef" horiz-adv-x="250" 
 />
    <glyph glyph-name=".null" horiz-adv-x="0" 
 />
    <glyph glyph-name="nonmarkingreturn" horiz-adv-x="250" 
 />
    <glyph glyph-name="space" unicode=" " horiz-adv-x="250" 
 />
    <glyph glyph-name="space" unicode="&#xa0;" horiz-adv-x="250" 
 />
    <glyph glyph-name="exclam" unicode="!" horiz-adv-x="333" 
d="M102 0v132h130v-132h-130zM101 750h130v-210q2 -43 0 -86t-6 -87t-8 -86.5t-7 -86.5h-85q-2 44 -6.5 86.5t-8.5 86.5q-5 44 -7.5 87t-1.5 86v210z" />
    <glyph glyph-name="quotedbl" unicode="&#x22;" horiz-adv-x="333" 
d="M16 468v271h119v-271h-119zM199 468v271h119v-271h-119z" />
    <glyph glyph-name="numbersign" unicode="#" 
d="M224 423l-11 -92h71l12 92h-72zM445 233h-86l-29 -233h-85l28 233h-72l-29 -233h-84l28 233h-85v98h98l11 92h-84v98h95l27 217h83l-26 -217h73l26 217h86l-27 -217h76v-98h-88l-11 -92h75v-98z" />
    <glyph glyph-name="dollar" unicode="$" 
d="M218 640q-26 -4 -39.5 -25.5t-13.5 -49.5q0 -19 4.5 -33.5t12 -26.5t17 -22.5t19.5 -21.5v179zM279 85q26 8 43 30t17 64q0 19 -6 36t-15 31t-19.5 24.5t-19.5 16.5v-202zM218 308q-37 24 -68.5 46.5t-55 49.5t-36.5 62.5t-13 87.5q0 33 9.5 64t30 56.5t52.5 42.5t78 23
v63h68v-63q82 -10 121.5 -48.5t41.5 -89.5q1 -16 3 -31.5t1 -31.5h-116q0 41 -10 66t-45 35v-199q39 -20 73 -44t59 -52.5t40 -62t15 -72.5q1 -52 -9 -91t-32 -66.5t-57.5 -44t-84.5 -23.5v-109h-68v106q-53 4 -88.5 24t-56.5 51.5t-29.5 73.5t-5.5 91h120q0 -24 1 -46.5
t6.5 -40.5t18 -31t37.5 -19v223z" />
    <glyph glyph-name="percent" unicode="%" horiz-adv-x="833" 
d="M650 293q-22 0 -33.5 -8t-17 -22t-6.5 -34.5t-1 -45.5t1 -45.5t6.5 -34.5t17 -22t33.5 -8q21 0 33 8t17 22t6 34.5t1 45.5t-1 45.5t-6 34.5t-17 22t-33 8zM186 663q-22 0 -34 -8t-17.5 -22t-6.5 -34.5t-1 -45.5t1 -45.5t6.5 -34.5t17.5 -22t34 -8q21 0 33 8t17 22t6 34.5
t1 45.5t-1 45.5t-6 34.5t-17 22t-33 8zM209 -15l336 765h70l-335 -765h-71zM649 366q55 0 86 -15t46 -40.5t18.5 -58.5t3.5 -69t-3.5 -69t-18.5 -58.5t-46 -40.5t-86 -15q-54 0 -84.5 15t-46 40.5t-19 58.5t-3.5 69t3.5 69t19 58.5t46 40.5t84.5 15zM184 736q55 0 86 -15
t46.5 -40.5t19 -58.5t3.5 -69t-3.5 -69t-19 -58.5t-46.5 -40.5t-86 -15q-54 0 -84.5 15t-46 40.5t-19 58.5t-3.5 69t3.5 69t19 58.5t46 40.5t84.5 15z" />
    <glyph glyph-name="ampersand" unicode="&#x26;" horiz-adv-x="667" 
d="M306 518q21 17 39.5 39.5t18.5 51.5q0 26 -15.5 42t-34.5 17t-33.5 -11t-14.5 -38t14.5 -52.5t25.5 -48.5zM264 343q-10 -4 -23.5 -15.5t-25 -29.5t-18.5 -40.5t-3 -47.5q3 -21 11 -41.5t20.5 -37t29.5 -26.5t39 -10q27 0 49 12t42 29zM457 262q11 33 16 67.5t7 69.5h111
q0 -67 -16 -130.5t-50 -121.5l90 -150h-150l-27 50q-39 -38 -80.5 -51.5t-94.5 -13.5q-43 0 -79.5 17.5t-63.5 47.5t-42 71.5t-15 89.5q0 42 10 75.5t28.5 61.5t45 52t58.5 47q-22 38 -40.5 77.5t-18.5 84.5q0 44 15.5 75t40 50.5t55.5 28t62 8.5q30 0 58 -10.5t50.5 -30.5
t36 -49t13.5 -66q0 -62 -31.5 -108.5t-82.5 -78.5z" />
    <glyph glyph-name="quotesingle" unicode="'" horiz-adv-x="250" 
d="M66 468v271h119v-271h-119z" />
    <glyph glyph-name="parenleft" unicode="(" horiz-adv-x="333" 
d="M279 768q-23 -44 -40.5 -90.5t-29.5 -104.5t-18.5 -133t-6.5 -177q0 -69 4.5 -126t15.5 -111t29.5 -108t47.5 -116h-83q-40 68 -68 125t-45 114t-25 120t-8 143q0 131 34 244.5t112 219.5h81z" />
    <glyph glyph-name="parenright" unicode=")" horiz-adv-x="333" 
d="M54 -198q22 44 40 90.5t30 104.5t18.5 133t6.5 177q0 69 -4.5 126t-15.5 111t-30 108t-47 116h83q40 -68 68 -125t45 -114t25 -120t8 -143q0 -131 -34 -244.5t-112 -219.5h-81z" />
    <glyph glyph-name="asterisk" unicode="*" 
d="M316 413l-54 77q-2 4 -4.5 7t-4.5 8q-2 -5 -5.5 -9.5t-6.5 -9.5l-54 -74l-66 47l55 76q4 7 11 14q-5 2 -10 3t-10 3l-88 28l24 76l89 -28q5 -2 9 -3t9 -3q-1 5 -1 10v10v93h80v-93v-9t-1 -9q5 2 10 3.5t11 3.5l86 29l27 -78l-90 -27q-5 -2 -9 -3t-9 -1q9 -9 14 -18
l54 -75z" />
    <glyph glyph-name="plus" unicode="+" 
d="M195 492h110v-188h170v-110h-170v-194h-110v194h-169v110h169v188z" />
    <glyph glyph-name="comma" unicode="," horiz-adv-x="333" 
d="M101 -101q35 4 53.5 32t16.5 69h-70v132h132v-129q0 -64 -33 -102t-99 -46v44z" />
    <glyph glyph-name="hyphen" unicode="-" horiz-adv-x="333" 
d="M48 255v115h238v-115h-238z" />
    <glyph glyph-name="hyphen" unicode="&#xad;" horiz-adv-x="333" 
d="M48 255v115h238v-115h-238z" />
    <glyph glyph-name="period" unicode="." horiz-adv-x="333" 
d="M101 0v132h132v-132h-132z" />
    <glyph glyph-name="slash" unicode="/" horiz-adv-x="278" 
d="M225 750h87l-236 -844h-87z" />
    <glyph glyph-name="zero" unicode="0" 
d="M188 201q-2 -32 2.5 -52.5t13 -32.5t20 -16.5t25.5 -4.5t26 4.5t21 16.5t13.5 32.5t3.5 52.5v337q1 31 -3.5 51.5t-13.5 32.5t-21 16.5t-26 4.5t-25.5 -4.5t-20 -16.5t-13 -32.5t-2.5 -51.5v-337zM48 538q0 60 14 101t40 66.5t63.5 36.5t85.5 11q47 0 84.5 -11
t63.5 -36.5t40 -66.5t14 -101v-337q0 -60 -14 -101t-40 -66.5t-63.5 -37t-85.5 -11.5q-47 0 -84.5 11.5t-63.5 37t-40 66.5t-14 101v337z" />
    <glyph glyph-name="one" unicode="1" 
d="M213 520h-169v100q36 0 69 6t60 20.5t46.5 39.5t30.5 64h103v-750h-140v520z" />
    <glyph glyph-name="two" unicode="2" 
d="M32 0q1 24 4 59.5t8 67.5q7 39 37 90.5t95 120.5l68 72q17 18 30 33t21.5 30.5t13 34.5t4.5 46q0 51 -18.5 70t-48.5 19q-22 0 -39.5 -8t-25.5 -29q-11 -25 -10.5 -52.5t-0.5 -53.5h-131v21q0 16 1 40t6.5 50t18 51.5t36 46t60.5 32.5t91 12q44 0 81 -13.5t63.5 -38.5
t41.5 -61t15 -81q0 -63 -22.5 -111.5t-66.5 -93.5l-110 -114q-11 -11 -23.5 -25.5t-23.5 -31.5t-18.5 -35.5t-7.5 -37.5h261v-110h-410z" />
    <glyph glyph-name="three" unicode="3" 
d="M171 456q22 2 45 2t43 9q29 14 36 39t7 53q0 84 -67 84q-11 0 -22.5 -2.5t-21 -9t-16 -18t-7.5 -29.5v-53h-131q-6 105 41.5 163.5t155.5 58.5q106 0 155 -51.5t49 -141.5q0 -24 -5 -50t-16.5 -48t-30.5 -37.5t-46 -19.5v-2q25 -3 46 -15.5t36 -35t23.5 -55.5t7.5 -76
q0 -55 -12.5 -99t-39 -74.5t-67.5 -46.5t-99 -16q-73 0 -114.5 23.5t-62.5 57.5t-26 72t-4 67v44h131q1 -23 1 -50t6 -50t22.5 -38.5t49.5 -15.5q29 0 44.5 12.5t22 32.5t7.5 45.5t1 51.5q0 9 -0.5 19.5t-2 21.5t-4.5 21t-9 17q-10 12 -25.5 18t-33 8.5t-35 3t-32.5 0.5v110
z" />
    <glyph glyph-name="four" unicode="4" 
d="M266 262v304h-2l-138 -304h140zM406 738v-476h64v-110h-64v-152h-140v152h-243v110l227 476h156z" />
    <glyph glyph-name="five" unicode="5" 
d="M44 345l19 393h361v-110h-253l-9 -160q26 25 50 33.5t59 8.5q61 0 98 -23.5t57 -61t26 -83.5t6 -91q0 -64 -10 -113.5t-34 -83.5t-64 -51.5t-99 -17.5q-64 0 -105.5 15t-65.5 45.5t-33.5 78t-9.5 112.5h131q1 -20 1 -44t6 -45t20 -36t43 -16q31 -2 47 12t23 37t8 51.5
t2 56.5q2 45 -3 73.5t-16 45t-26.5 23t-34.5 6.5q-26 0 -46.5 -15.5t-23.5 -39.5h-124z" />
    <glyph glyph-name="six" unicode="6" 
d="M182 260q0 -35 0.5 -66t7 -54t21.5 -35.5t43 -9.5q27 0 41 12.5t19 34.5t5 52v66v43q0 24 -6 44.5t-20 34t-42 13.5q-26 0 -40 -12.5t-20.5 -32t-7.5 -43.5t-1 -47zM42 450q0 90 13 148.5t40 93t67.5 48t96.5 13.5q41 0 75.5 -9.5t59.5 -30t38 -52.5t12 -77h-130
q0 9 -1.5 20t-7.5 20t-18 14.5t-33 4.5q-30 -2 -45 -18t-21 -37.5t-6.5 -44.5t-1.5 -40v-48l18 18t21.5 16t29.5 11.5t41 4.5q90 0 129.5 -59.5t39.5 -175.5q0 -71 -9.5 -124t-33 -89t-63.5 -54t-101 -18q-63 0 -103.5 20t-64.5 56.5t-33.5 89.5t-8.5 119v180z" />
    <glyph glyph-name="seven" unicode="7" 
d="M32 738h422v-101q-50 -88 -83.5 -178.5t-56.5 -184.5q-17 -67 -29 -136t-15 -138h-144q8 119 41.5 233t77.5 225q6 15 15.5 36.5t21 44.5t24 46.5t25.5 42.5h-299v110z" />
    <glyph glyph-name="eight" unicode="8" 
d="M251 452q22 0 34.5 10.5t18.5 26t7.5 34.5t1.5 36q0 43 -16.5 63.5t-43.5 20.5q-20 0 -33 -7.5t-20 -20.5t-9.5 -30t-2.5 -36q0 -17 2 -34t8.5 -31t19 -23t33.5 -9zM181 208q0 -24 1.5 -44t8 -35t21 -24t40.5 -10q25 2 39 13t20.5 28t7.5 38.5t1 45.5q0 27 -1.5 51
t-8.5 42t-21 28.5t-39 10.5q-27 0 -41.5 -11t-20.5 -30.5t-6.5 -45.5t-0.5 -57zM146 406q-23 12 -39.5 26t-27 33.5t-16 47t-5.5 67.5q0 30 10.5 61t33.5 55.5t60 40.5t90 16q104 0 147.5 -49t43.5 -144q0 -30 -4 -53.5t-14.5 -42.5t-29 -33.5t-47.5 -26.5v-2
q64 -14 88 -60.5t24 -128.5q0 -62 -14 -105.5t-40.5 -70.5t-64.5 -39.5t-86 -12.5q-60 0 -100.5 14t-66 42.5t-36.5 71t-11 99.5q0 42 5.5 72.5t18.5 53.5t32.5 39t48.5 29z" />
    <glyph glyph-name="nine" unicode="9" 
d="M319 478q0 35 -0.5 66t-7 54t-21.5 35.5t-43 9.5q-27 0 -41 -12.5t-19 -34.5t-5 -52v-66v-44t6 -44t20 -33.5t42 -13.5q26 0 40 12.5t20.5 32t7.5 43.5t1 47zM459 288q0 -90 -13 -148.5t-39.5 -93t-67.5 -48t-96 -13.5q-41 0 -76 9.5t-59.5 30t-38 52.5t-11.5 77h130
q0 -9 1.5 -20t7.5 -20t18.5 -14.5t33.5 -4.5q30 0 44.5 15.5t20.5 37.5t6.5 46t1.5 41v48l-18 -18t-21.5 -16t-29.5 -11.5t-41 -4.5q-90 0 -130 59.5t-40 175.5q0 70 9.5 123.5t33.5 89.5t64 54t101 18q63 0 103.5 -20t64.5 -56.5t33 -89.5t8 -119v-180z" />
    <glyph glyph-name="colon" unicode=":" horiz-adv-x="278" 
d="M73 0v132h132v-132h-132zM73 424v132h132v-132h-132z" />
    <glyph glyph-name="semicolon" unicode=";" horiz-adv-x="278" 
d="M73 424v132h132v-132h-132zM73 -101q35 4 53.5 32t16.5 69h-70v132h132v-129q0 -64 -33 -102t-99 -46v44z" />
    <glyph glyph-name="less" unicode="&#x3c;" 
d="M459 87v-111l-417 225v99l417 227v-111l-297 -167z" />
    <glyph glyph-name="equal" unicode="=" 
d="M475 96h-449v110h449v-110zM475 291h-449v110h449v-110z" />
    <glyph glyph-name="greater" unicode="&#x3e;" 
d="M339 249l-297 167v111l417 -227v-99l-417 -225v111z" />
    <glyph glyph-name="question" unicode="?" 
d="M274 130v-130h-127v130h127zM52 553q-6 111 46 163t149 52q89 0 141 -49.5t52 -136.5q0 -29 -4.5 -51t-13 -42t-21.5 -39t-30 -41q-18 -19 -34.5 -38t-34.5 -38q-23 -29 -29.5 -63t-6.5 -69h-117q-1 17 0 34.5t3 34.5q3 36 13 62t25.5 48t34 43.5t38.5 47.5
q11 15 18.5 27.5t12 25t6.5 26.5t2 33q0 44 -13.5 62.5t-43.5 18.5q-23 0 -35.5 -5t-20.5 -18q-11 -20 -11 -43t-2 -45h-124z" />
    <glyph glyph-name="at" unicode="@" horiz-adv-x="833" 
d="M504 370q2 22 -2 43.5t-13.5 38t-26 25.5t-40.5 7q-23 -2 -43 -13t-35 -28.5t-24.5 -39.5t-10.5 -46q-3 -50 18 -77t53 -32q28 -4 50 6.5t38 29.5t25 42t11 44zM750 148q-56 -77 -134 -121.5t-175 -44.5q-84 0 -157 30t-128 83t-86.5 125.5t-31.5 157.5q0 84 31 155
t84.5 123.5t126 82t155.5 29.5q69 0 130.5 -19.5t113.5 -64.5q53 -45 84.5 -102.5t31.5 -129.5q0 -62 -18.5 -115t-61.5 -98q-15 -15 -36.5 -31t-46 -28.5t-50 -20.5t-47.5 -8q-19 0 -33.5 17t-8.5 46l-2 2q-64 -61 -123 -61q-40 0 -71.5 14.5t-53 39.5t-33 58.5t-11.5 71.5
q0 46 15 89t42.5 76t67 53t87.5 20q40 0 72 -14.5t55 -46.5l11 53h98l-53 -308q-3 -14 4 -19t16 -2q13 4 32.5 22.5t35.5 41.5q5 7 11 20t11.5 29t9 34t3.5 36q2 63 -18.5 113.5t-58.5 85.5t-91.5 53.5t-116.5 18.5q-69 0 -127 -23.5t-100 -65.5t-65.5 -100t-23.5 -127
q0 -73 25.5 -132.5t70.5 -101.5t106 -65t131 -23q60 0 111 26.5t94 65.5h96z" />
    <glyph glyph-name="A" unicode="A" horiz-adv-x="556" 
d="M218 300h120l-38 213q-5 26 -8 52l-6 52q-1 13 -2 25.5t-3 24.5h-2q-2 -12 -3 -24.5t-2 -25.5l-6 -52t-8 -52zM9 0l179 750h189l170 -750h-150l-37 190h-164l-37 -190h-150z" />
    <glyph glyph-name="B" unicode="B" horiz-adv-x="556" 
d="M231 447q26 0 54.5 2.5t45.5 23.5q10 14 12.5 34t2.5 47q0 42 -14 63t-62 23h-65v-193h26zM235 110h43q22 0 41 8q14 6 22.5 18t13 26t6 30t1.5 30q0 30 -4 52t-15 36t-31 20.5t-53 6.5h-54v-227h30zM65 0v750h226q22 0 44.5 -1.5t42.5 -7t38.5 -16.5t33.5 -30
q24 -31 30.5 -64t6.5 -71q0 -24 -3.5 -48t-13 -44.5t-27.5 -37.5t-46 -27v-2q59 -8 84 -54.5t25 -119.5q0 -23 -2 -46t-8 -46q-23 -71 -66 -103t-118 -32h-247z" />
    <glyph glyph-name="C" unicode="C" horiz-adv-x="556" 
d="M512 267q-1 -11 -1.5 -21.5t-1.5 -21.5q-3 -51 -14 -95.5t-35 -77t-63 -51t-97 -18.5q-86 0 -135 26t-73.5 72t-30.5 109.5t-6 138.5v107q2 72 9 133t31.5 105.5t72.5 69.5t132 25q190 -3 205 -194q2 -14 3 -28.5t0 -28.5h-138q-2 18 -3.5 42t-7.5 45t-19.5 36t-39.5 15
q-41 0 -62 -21.5t-29.5 -51.5t-9 -62t-0.5 -54v-208q0 -23 2.5 -51.5t12 -53.5t30 -41.5t56.5 -16.5q29 0 43 20t20 48t6.5 57t1.5 47h141z" />
    <glyph glyph-name="D" unicode="D" horiz-adv-x="611" 
d="M273 110q47 0 73.5 13.5t40 46.5t16.5 87.5t3 135.5q0 66 -4 113t-15.5 77t-31.5 43.5t-51 13.5h-92v-530h61zM72 0v750h292q13 0 31 -3.5t38 -13t40 -26t36 -42.5q24 -39 32.5 -102t8.5 -157q0 -56 -2 -113.5t-12.5 -110t-34 -95t-66.5 -67.5q-23 -14 -50.5 -17
t-53.5 -3h-259z" />
    <glyph glyph-name="E" unicode="E" 
d="M64 0v750h394v-110h-254v-189h234v-110h-234v-231h254v-110h-394z" />
    <glyph glyph-name="F" unicode="F" 
d="M73 0v750h397v-110h-257v-190h241v-110h-241v-340h-140z" />
    <glyph glyph-name="G" unicode="G" horiz-adv-x="611" 
d="M55 435q2 72 9 133t31.5 105.5t72.5 69.5t132 25q45 0 83 -7.5t67.5 -25.5t51 -49t33.5 -80q5 -23 5.5 -45.5t1.5 -45.5h-140q-1 28 -3.5 53t-12.5 44t-30 30t-56 13q-41 0 -62 -21.5t-29.5 -51.5t-9 -62t-0.5 -54v-208q0 -23 2.5 -51.5t12 -53.5t30 -41.5t56.5 -16.5
q30 0 50.5 15t32.5 41.5t16.5 63t3.5 78.5h-97v110h233v-403h-105v86h-2q-11 -29 -25.5 -48.5t-32 -31.5t-36.5 -17.5t-38 -6.5q-86 0 -135 26t-73.5 72t-30.5 109.5t-6 138.5v107z" />
    <glyph glyph-name="H" unicode="H" horiz-adv-x="611" 
d="M68 0v750h140v-297h196v297h140v-750h-140v343h-196v-343h-140z" />
    <glyph glyph-name="I" unicode="I" horiz-adv-x="278" 
d="M69 0v750h140v-750h-140z" />
    <glyph glyph-name="J" unicode="J" horiz-adv-x="444" 
d="M148 238v-93q1 -20 10 -35t35 -15q19 0 29 6.5t15 17.5t6 25.5t1 29.5v576h140v-547v-42q0 -22 -3.5 -45t-12 -45t-25.5 -40q-31 -33 -75.5 -41t-95.5 -8q-38 0 -76.5 16.5t-67.5 60.5q-6 10 -10.5 29.5t-7 44t-3.5 52t1 53.5h140z" />
    <glyph glyph-name="K" unicode="K" horiz-adv-x="556" 
d="M68 0v750h140v-333h2q17 45 41 91.5t47 88.5l82 153h158l-185 -322l194 -428h-158l-132 296l-49 -81v-215h-140z" />
    <glyph glyph-name="L" unicode="L" 
d="M68 0v750h140v-640h260v-110h-400z" />
    <glyph glyph-name="M" unicode="M" horiz-adv-x="778" 
d="M207 0h-140v750h223l75 -348q9 -43 15 -86t11 -87h2q5 56 9.5 96t12.5 77l75 348h222v-750h-140v236q0 112 2.5 223.5t9.5 223.5h-2l-150 -683h-85l-147 683h-5q7 -112 9.5 -223.5t2.5 -223.5v-236z" />
    <glyph glyph-name="N" unicode="N" horiz-adv-x="611" 
d="M403 750h140v-750h-146l-109 267q-28 67 -51.5 138t-48.5 160h-2q4 -47 8 -102t7 -112t5 -111t2 -99v-141h-140v750h145l109 -273q27 -65 50.5 -136t49.5 -162h2q-4 51 -7.5 105t-6.5 108t-5 107t-2 104v147z" />
    <glyph glyph-name="O" unicode="O" horiz-adv-x="611" 
d="M205 258q0 -23 2.5 -51.5t12 -53.5t30 -41.5t56.5 -16.5q37 0 57.5 17t30.5 43.5t11.5 57t1.5 57.5v192q0 22 -1 55t-10.5 64t-30 52.5t-59.5 21.5q-41 0 -62 -21.5t-29.5 -51.5t-9 -62t-0.5 -54v-208zM61 435q2 72 9 133t31.5 105.5t72.5 69.5t132 25t132 -25
t72.5 -69.5t31.5 -105.5t9 -133v-107q0 -75 -6 -138.5t-30.5 -109.5t-73.5 -72t-135 -26t-135 26t-73.5 72t-30.5 109.5t-6 138.5v107z" />
    <glyph glyph-name="P" unicode="P" horiz-adv-x="556" 
d="M208 424h75q46 0 74 24.5t28 92.5q0 32 -6.5 51.5t-20.5 30t-35 14t-51 3.5h-64v-216zM68 0v750h286q50 0 83.5 -18.5t54 -48.5t29 -68.5t8.5 -77.5q0 -24 -3.5 -49t-11.5 -48.5t-21.5 -44t-33.5 -36.5q-33 -26 -74.5 -36t-82.5 -9h-94v-314h-140z" />
    <glyph glyph-name="Q" unicode="Q" horiz-adv-x="611" 
d="M391 190l7 -7q8 37 8 75l1 208q0 22 -0.5 54t-9 62t-29.5 51.5t-62 21.5t-62 -21.5t-29.5 -51.5t-9 -62t-0.5 -54v-208q0 -23 2.5 -51.5t12 -53.5t30 -41.5t56.5 -16.5q19 0 36 5l-27 26zM516 -71l-78 76q-26 -13 -57 -18t-75 -5q-86 0 -135 26t-73.5 72t-30.5 109.5
t-6 138.5v107q2 72 9 133t31.5 105.5t72.5 69.5t132 25t132 -25t72.5 -69.5t31.5 -105.5t9 -133v-107q0 -36 -1.5 -72.5t-5.5 -70t-12.5 -62.5t-21.5 -51l77 -77z" />
    <glyph glyph-name="R" unicode="R" horiz-adv-x="611" 
d="M206 433h110q34 2 58 27t24 81q0 31 -6.5 50.5t-18 30t-27.5 14.5t-36 4h-104v-207zM206 323v-323h-140v750h265q45 0 84 -8.5t67.5 -29.5t45 -55.5t16.5 -86.5q0 -31 -5 -61t-17.5 -55t-35 -42.5t-57.5 -22.5v-2q62 -8 85 -45t23 -91v-27t0.5 -43.5t2 -51.5t4.5 -50.5
t8.5 -41.5t14.5 -23v-14h-154q-6 18 -9 43t-4.5 51.5t-1.5 51.5v44q0 17 -1 36.5t-5.5 37t-14 31t-27.5 18.5q-29 8 -59 9t-60 1h-25z" />
    <glyph glyph-name="S" unicode="S" horiz-adv-x="556" 
d="M354 522q0 25 -2 49t-10 42.5t-24.5 30t-45.5 11.5q-35 0 -56 -16t-21 -54q0 -21 6.5 -36.5t17 -27.5t25 -22.5t31.5 -20.5q17 -11 40.5 -26t47.5 -32t45.5 -34t36.5 -31q36 -35 49.5 -71.5t13.5 -85.5q0 -53 -17 -93.5t-47.5 -67.5t-73 -41t-93.5 -14q-63 0 -106.5 17
t-70.5 47t-39 72t-12 92v55h140v-44q-2 -55 17 -90.5t71 -35.5q87 0 87 88q0 33 -14.5 56.5t-41.5 42.5q-27 21 -57 40.5t-59.5 39.5t-56.5 42.5t-48 50.5q-36 53 -36 115q0 97 54 147.5t166 50.5q56 0 93.5 -13t62 -34.5t37 -48t18 -54t6.5 -53t1 -43.5h-135z" />
    <glyph glyph-name="T" unicode="T" 
d="M17 750h467v-110h-163v-640h-140v640h-164v110z" />
    <glyph glyph-name="U" unicode="U" horiz-adv-x="611" 
d="M404 750h140v-523q0 -62 -11.5 -108t-38.5 -76.5t-72.5 -45.5t-114.5 -15t-115 15t-73.5 45.5t-39 76.5t-11.5 108v523h140v-511q0 -27 2.5 -53t12 -46t29.5 -32.5t56 -12.5q34 0 53.5 12.5t29 32.5t11.5 46t2 53v511z" />
    <glyph glyph-name="V" unicode="V" horiz-adv-x="556" 
d="M386 750h150l-162 -750h-187l-166 750h150l88 -481q6 -32 10 -64t7 -64q2 -15 4 -30.5t2 -31.5h2q0 16 2 31.5t4 30.5q3 32 7 64t10 64z" />
    <glyph glyph-name="W" unicode="W" horiz-adv-x="833" 
d="M550 362q11 -57 17 -126t14 -141h2q2 14 2.5 27t2.5 27q4 48 8.5 96t12.5 96l56 409h145l-139 -750h-168l-56 296q-11 60 -16.5 119.5t-13.5 119.5h-2q-8 -60 -13.5 -119.5t-16.5 -119.5l-50 -296h-168l-143 750h145l63 -409q8 -48 12.5 -96t8.5 -96q2 -14 2.5 -27
t1.5 -27h2q8 72 14.5 141t17.5 126l68 388h116z" />
    <glyph glyph-name="X" unicode="X" horiz-adv-x="556" 
d="M545 0h-160l-80 183q-20 47 -29 95h-2q-5 -38 -19 -72t-29 -68l-62 -138h-153l184 380l-177 370h157l76 -170q10 -23 18 -45.5t9 -48.5h3q3 37 17.5 70.5t28.5 66.5l54 127h158l-180 -370z" />
    <glyph glyph-name="Y" unicode="Y" horiz-adv-x="556" 
d="M244 553q11 -28 19.5 -56.5t13.5 -58.5h2q8 44 20.5 77t25.5 65l67 170h153l-198 -431v-319h-140v319l-195 431h153z" />
    <glyph glyph-name="Z" unicode="Z" 
d="M33 112l241 465q9 17 17.5 33.5t21.5 32.5q-14 -2 -27 -2.5t-27 -0.5h-210v110h410v-112l-241 -465q-9 -17 -17.5 -33.5t-21.5 -32.5q14 2 27 2.5t27 0.5h235v-110h-435v112z" />
    <glyph glyph-name="bracketleft" unicode="[" horiz-adv-x="333" 
d="M81 -94v844h199v-76h-89v-692h89v-76h-199z" />
    <glyph glyph-name="backslash" unicode="\" horiz-adv-x="250" 
d="M287 -94h-87l-236 844h87z" />
    <glyph glyph-name="bracketright" unicode="]" horiz-adv-x="333" 
d="M252 750v-844h-199v76h89v692h-89v76h199z" />
    <glyph glyph-name="asciicircum" unicode="^" 
d="M10 373l180 377h120l180 -377l-104 -47l-136 279l-136 -279z" />
    <glyph glyph-name="underscore" unicode="_" 
d="M0 -125v50h500v-50h-500z" />
    <glyph glyph-name="grave" unicode="`" horiz-adv-x="333" 
d="M156 775l94 -146h-101l-148 146h155z" />
    <glyph glyph-name="a" unicode="a" 
d="M299 297q-24 -17 -51.5 -34t-53.5 -38q-14 -12 -18 -31t-4 -37q0 -32 12.5 -52t48.5 -20q29 0 42.5 16t18.5 39t4.5 49.5t0.5 46.5v61zM317 0q-7 14 -8.5 28.5t0.5 29.5h-2q-11 -17 -24 -31t-28 -23q-30 -19 -62 -19q-79 0 -115 40.5t-36 128.5q0 48 16 80t42.5 53.5
t61.5 37t73 31.5q42 17 57 38t7 56q-5 19 -20 24t-41 5q-44 0 -56.5 -22t-11.5 -60h-124q0 40 7.5 73.5t29.5 57.5t60.5 37.5t99.5 13.5q66 0 104 -15.5t56.5 -40t22.5 -54t3 -57.5v-333q0 -38 11 -79h-123z" />
    <glyph glyph-name="b" unicode="b" 
d="M194 185q0 -100 63 -100q30 0 42.5 28t14.5 69v188q-2 21 -2.5 40.5t-5.5 35t-16.5 24.5t-34.5 9t-35.5 -13t-18.5 -32.5t-7 -41t0 -38.5v-169zM64 750h130v-180q0 -14 -1 -28.5t-2 -34.5h2q20 41 47 57t69 15q31 -1 56 -10.5t42 -32t26.5 -61t10.5 -96.5v-204
q-1 -34 -7 -68t-20.5 -61t-40.5 -44t-67 -17q-41 2 -69 17.5t-50 57.5h-2v-60h-124v750z" />
    <glyph glyph-name="c" unicode="c" horiz-adv-x="444" 
d="M273 368v63q-3 48 -45 48q-19 0 -29 -10t-14.5 -27t-5 -40t-0.5 -49v-133q-1 -41 1 -66.5t8 -40t15.5 -20.5t24.5 -8q15 0 23.5 7t12.5 18t5.5 26t3.5 32v52h130v-52q0 -89 -40.5 -136t-137.5 -47q-43 0 -76.5 12t-56.5 37.5t-34 65.5t-9 96v183q0 59 13.5 98t37 61.5
t56 31.5t69.5 9q49 0 83 -14t55.5 -37.5t30.5 -53.5t9 -61v-45h-130z" />
    <glyph glyph-name="d" unicode="d" 
d="M303 354q1 17 0 38.5t-7 41t-18.5 32.5t-35.5 13t-34.5 -9t-16.5 -24.5t-6 -35t-2 -40.5v-188q2 -41 14.5 -69t42.5 -28q63 0 63 100v169zM303 60h-2q-19 -43 -46.5 -58t-65.5 -17q-41 0 -67 17t-41 44t-21 61t-7 68v204q1 58 10.5 96.5t27 61t42 32t56.5 10.5
q42 1 69 -15t47 -57h2q-4 23 -4 50v193h130v-750h-130v60z" />
    <glyph glyph-name="e" unicode="e" 
d="M313 355v49q-1 43 -15 59t-53 16q-24 0 -37 -8.5t-18.5 -23t-6 -32.5t-0.5 -37v-23h130zM53 370q-5 100 44 154.5t146 54.5q68 0 107.5 -17t60 -49t26.5 -78t6 -104v-76h-260v-82q0 -28 5.5 -45t14.5 -26.5t21 -13t27 -3.5q36 0 49 26t11 80h130q2 -47 -7.5 -85t-31 -65
t-56.5 -41.5t-85 -14.5q-113 0 -161.5 56t-46.5 181v148z" />
    <glyph glyph-name="f" unicode="f" horiz-adv-x="278" 
d="M21 469v95h50v56q0 38 8 63t25 40t42.5 21t61.5 6h49v-104q-8 2 -15.5 4t-13.5 2q-27 0 -27 -22v-66h56v-95h-56v-469h-130v469h-50z" />
    <glyph glyph-name="g" unicode="g" 
d="M303 354q1 17 0 38.5t-7 41t-18.5 32.5t-35.5 13t-34.5 -9t-16.5 -24.5t-6 -35t-2 -40.5v-188q2 -41 14.5 -69t42.5 -28q63 0 63 100v169v0zM189 -63q0 -17 15 -25q8 -5 18 -6.5t22 -1.5q21 0 33.5 7.5t19.5 20t9.5 28t2.5 32.5v65l-2 2q-20 -41 -48.5 -56.5t-70.5 -17.5
q-41 0 -67 17t-40.5 44t-20.5 60.5t-7 67.5v204q1 58 10.5 96.5t26.5 61.5t41.5 32.5t56.5 10.5q87 1 113 -73h2v58h130v-547q0 -43 -8 -81t-30.5 -66t-63.5 -44t-108 -16q-32 0 -61 6.5t-51 21.5t-35.5 39t-16.5 60h130z" />
    <glyph glyph-name="h" unicode="h" 
d="M61 0v750h130v-244h2q14 25 30 39.5t32 22t30 9.5t25 2q28 0 52 -8.5t42 -26t27.5 -44.5t8.5 -65v-435h-130v386q0 42 -9 66.5t-46 26.5q-37 1 -51.5 -29t-12.5 -75v-375h-130z" />
    <glyph glyph-name="i" unicode="i" horiz-adv-x="278" 
d="M74 632v118h130v-118h-130zM74 0v564h130v-564h-130z" />
    <glyph glyph-name="j" unicode="j" horiz-adv-x="278" 
d="M79 632v118h130v-118h-130zM31 -90q23 -2 35.5 3.5t12.5 26.5v624h130v-567q0 -22 0.5 -48.5t-3 -51.5t-15 -46t-35.5 -32q-14 -7 -47 -10t-78 1v100z" />
    <glyph glyph-name="k" unicode="k" horiz-adv-x="444" 
d="M48 0v750h130v-339q0 -18 -0.5 -35.5t-1.5 -35.5h2l123 224h142l-142 -227l138 -337h-145l-81 230l-35 -58v-172h-130z" />
    <glyph glyph-name="l" unicode="l" horiz-adv-x="278" 
d="M74 0v750h130v-750h-130z" />
    <glyph glyph-name="m" unicode="m" horiz-adv-x="778" 
d="M196 506h2q11 23 26 37t31.5 22t33.5 10.5t33 3.5q18 0 38 -3.5t37 -12.5t29.5 -23t15.5 -34h2q19 37 50.5 55t79.5 18q36 0 62 -10.5t43 -27t25 -38.5t8 -44v-459h-130v381q0 19 -1.5 37t-8 32t-19 22t-33.5 7q-42 -2 -54 -30t-12 -78v-371h-130v388q0 19 -1.5 35.5
t-8 29t-19.5 19.5t-35 7q-23 0 -36 -8.5t-19 -22.5t-7.5 -34t-1.5 -43v-371h-130v564h130v-58z" />
    <glyph glyph-name="n" unicode="n" 
d="M191 506h2q11 24 26.5 38.5t32 22t32 10t26.5 2.5q28 0 52 -8.5t42 -26t27.5 -44.5t8.5 -65v-435h-130v376q0 42 -9 66.5t-46 26.5q-37 1 -51.5 -29t-12.5 -75v-365h-130v564h130v-58z" />
    <glyph glyph-name="o" unicode="o" 
d="M183 184q0 -26 2 -44.5t9 -30.5t20.5 -18t37.5 -6q22 0 35 6t20 18t8.5 30.5t1.5 44.5v188q0 20 -1 39t-7 34t-19.5 24.5t-37.5 9.5q-26 0 -40 -9.5t-20.5 -24.5t-7.5 -34t-1 -39v-188zM252 -15q-64 -1 -103.5 14.5t-60.5 49.5t-28 86.5t-7 126.5q0 72 4 131t22.5 100
t58.5 63.5t114 22.5q72 0 111.5 -22.5t58 -63.5t22 -100t3.5 -131q0 -74 -6.5 -126.5t-27.5 -86.5t-59.5 -49.5t-101.5 -14.5z" />
    <glyph glyph-name="p" unicode="p" 
d="M188 185q0 -100 63 -100q30 0 42.5 28t14.5 69v188q-2 21 -2.5 40.5t-5.5 35t-16.5 24.5t-34.5 9t-35.5 -13t-18.5 -32.5t-7 -41t0 -38.5v-169zM188 505h2q18 42 45 58.5t68 15.5q31 -1 56 -10.5t42 -33t26.5 -62t10.5 -96.5v-204q-1 -34 -7 -67.5t-20.5 -60.5
t-40.5 -43.5t-67 -16.5q-38 2 -66.5 16t-52.5 57h-2v-247h-124v753h130v-59z" />
    <glyph glyph-name="q" unicode="q" 
d="M300 354q1 17 0 38.5t-7 41t-18.5 32.5t-35.5 13t-34.5 -9t-16.5 -24.5t-6 -35t-2 -40.5v-188q2 -41 14.5 -69t42.5 -28q63 0 63 100v169zM430 -188h-130v248h-2q-19 -42 -46.5 -57.5t-66.5 -17.5q-41 0 -67 17t-40.5 44t-20.5 61t-7 68v204q1 58 10.5 96.5t26.5 61
t41.5 32t56.5 10.5q41 1 68 -14.5t45 -57.5h2v57h130v-752z" />
    <glyph glyph-name="r" unicode="r" horiz-adv-x="333" 
d="M185 464h2q12 31 24.5 49.5t26.5 30.5q28 23 47.5 26t33.5 4v-154q-27 3 -50.5 0t-40.5 -13.5t-27 -30t-11 -50.5v-326h-130v564h125v-100z" />
    <glyph glyph-name="s" unicode="s" horiz-adv-x="444" 
d="M159 186q-4 -39 1 -59.5t14 -30t21.5 -10.5t23.5 -1q28 0 44.5 18t9.5 45q-1 12 -7.5 21.5t-16 17.5t-20.5 15t-20 13l-71 49q-49 34 -78 75.5t-29 102.5q0 66 50 101.5t144 35.5q95 0 139 -48t42 -139h-130q2 48 -12 67.5t-48 19.5q-23 0 -39 -11t-16 -35
q0 -25 15 -38.5t34 -26.5l106 -72q12 -7 27 -20t28.5 -28.5t22.5 -32t11 -30.5q4 -37 -0.5 -72.5t-24.5 -64t-60.5 -46t-107.5 -17.5q-26 0 -60 7t-63 29t-47.5 61t-12.5 104h130z" />
    <glyph glyph-name="t" unicode="t" horiz-adv-x="278" 
d="M252 -2q-29 -3 -61.5 -4.5t-60 6t-45.5 28t-18 59.5v382h-53v95h52v155h131v-155h55v-95h-55v-350q1 -9 7.5 -13.5t15 -6t17.5 -1t15 1.5v-102z" />
    <glyph glyph-name="u" unicode="u" 
d="M307 84h-2q-29 -98 -121 -99q-39 0 -63.5 9.5t-38.5 28.5t-19 46.5t-5 62.5v432h130v-386q0 -19 1 -38.5t12 -36.5q16 -18 40 -18q23 0 35 11.5t17.5 28.5t6.5 36.5t1 36.5v366h130v-564h-124v84z" />
    <glyph glyph-name="v" unicode="v" horiz-adv-x="444" 
d="M10 564h140l55 -316q4 -19 7 -44t5.5 -49t3.5 -44t2 -30h2q1 10 2 30t3.5 44t5.5 49t7 44l56 316h135l-130 -564h-162z" />
    <glyph glyph-name="w" unicode="w" horiz-adv-x="667" 
d="M444 218q5 -30 8 -60t5 -61h3q0 9 1.5 27.5t3 38t3.5 36.5t3 23l43 342h131l-114 -564h-142l-43 228q-7 35 -10.5 70.5t-6.5 71.5h-4q-2 -34 -5 -67.5t-8 -66.5l-40 -236h-145l-116 564h137l46 -344q1 -6 3 -23t3.5 -36.5t3 -38t1.5 -27.5h2q2 31 5 61t8 60l54 348h107z
" />
    <glyph glyph-name="x" unicode="x" horiz-adv-x="444" 
d="M15 564h153l43 -102q4 -13 8 -25.5t6 -25.5h2q3 14 7 26.5t9 26.5l46 100h144l-141 -273l144 -291h-146l-39 91q-9 20 -16 40.5t-10 42.5h-2q-4 -24 -11.5 -46t-17.5 -44l-37 -84h-149l149 288z" />
    <glyph glyph-name="y" unicode="y" horiz-adv-x="444" 
d="M142 564l57 -299q7 -38 11 -75t8 -75h2q3 37 8 73.5t12 72.5l57 303h132l-137 -572q-12 -48 -22 -86t-30.5 -62.5t-58.5 -34t-105 0.5v101q8 0 21 -1t25.5 0t21.5 6.5t9 19.5q0 15 -4 36t-8 36l-136 556h137z" />
    <glyph glyph-name="z" unicode="z" horiz-adv-x="389" 
d="M161 100h206v-100h-344v102l198 362h-194v100h340v-93z" />
    <glyph glyph-name="braceleft" unicode="{" horiz-adv-x="274" 
d="M43 620q0 65 27.5 97.5t95.5 32.5h74v-2q-23 -5 -38 -15t-23 -24t-11 -32t-3 -39v-184q0 -53 -15.5 -84t-66.5 -42v-2q27 -4 43 -16.5t24.5 -31t11.5 -41t3 -46.5v-172q0 -19 3 -36t11 -31.5t23 -25t38 -16.5v-2h-65q-40 0 -65.5 9t-40.5 27.5t-20.5 46.5t-5.5 65v162
q0 44 -15.5 70t-59.5 37v2q22 3 36.5 13t23 25t12 33.5t3.5 37.5v184z" />
    <glyph glyph-name="bar" unicode="|" horiz-adv-x="250" 
d="M175 750v-1000h-100v1000h100z" />
    <glyph glyph-name="braceright" unicode="}" horiz-adv-x="274" 
d="M231 435q0 -20 3.5 -38t12 -33t23 -25t36.5 -13v-2q-25 -3 -39.5 -12t-22.5 -23t-10.5 -32.5t-2.5 -40.5v-162q0 -38 -5.5 -65.5t-19.5 -46t-39 -27.5t-65 -9h-68v2q45 11 60 39t15 71v171q0 25 2.5 46.5t11 38.5t25 29.5t43.5 20.5v2q-51 11 -66.5 42.5t-15.5 83.5v185
q0 45 -16.5 73.5t-58.5 36.5v3h68q71 -1 100 -31t29 -101v-183z" />
    <glyph glyph-name="asciitilde" unicode="~" 
d="M475 286q-12 -20 -24 -41t-27 -38t-34 -27.5t-44 -10.5q-23 0 -50 10.5t-53.5 22.5t-48.5 22.5t-34 10.5q-15 0 -26.5 -8t-20.5 -20t-16 -26.5t-14 -27.5l-57 74q10 21 23 43t29.5 40t36.5 29.5t44 11.5t50.5 -10.5t51.5 -22.5t47 -22.5t38 -10.5q14 0 24.5 7.5
t18.5 18.5t15 24t14 24z" />
    <glyph glyph-name="Euro" 
d="M464 22q-27 -19 -61.5 -28t-70.5 -9q-64 0 -111 24t-79 65t-50 94.5t-25 113.5h-62l12 52h46v26v22q0 12 1 23h-59l13 52h51q7 61 26 115t51 94.5t79 63.5t111 23q45 0 86.5 -13.5t73.5 -40.5l-31 -129q-26 32 -52 50.5t-68 18.5q-35 0 -59 -16.5t-40 -42.5t-24.5 -58.5
t-12.5 -64.5h229l-12 -52h-221q-1 -11 -1 -21v-17v-17q0 -8 1 -16h204l-13 -52h-186q4 -33 13.5 -66t25 -59t38 -42.5t54.5 -16.5q41 0 69.5 12t53.5 44v-132z" />
    <glyph glyph-name="Euro" unicode="&#x20ac;" 
d="M464 22q-27 -19 -61.5 -28t-70.5 -9q-64 0 -111 24t-79 65t-50 94.5t-25 113.5h-62l12 52h46v26v22q0 12 1 23h-59l13 52h51q7 61 26 115t51 94.5t79 63.5t111 23q45 0 86.5 -13.5t73.5 -40.5l-31 -129q-26 32 -52 50.5t-68 18.5q-35 0 -59 -16.5t-40 -42.5t-24.5 -58.5
t-12.5 -64.5h229l-12 -52h-221q-1 -11 -1 -21v-17v-17q0 -8 1 -16h204l-13 -52h-186q4 -33 13.5 -66t25 -59t38 -42.5t54.5 -16.5q41 0 69.5 12t53.5 44v-132z" />
    <glyph glyph-name="exclamdown" unicode="&#xa1;" horiz-adv-x="333" 
d="M102 579h130v-132h-130v132zM102 -170v210q-2 44 0 86.5t6 86.5t8.5 87t6.5 86h88q2 -43 5.5 -86t7.5 -87t6.5 -86.5t1.5 -86.5v-210h-130z" />
    <glyph glyph-name="cent" unicode="&#xa2;" 
d="M194 137h2l56 332l-9 1q-19 0 -29 -9.5t-14.5 -26.5t-5 -39.5t-0.5 -48.5v-209zM428 218q1 -21 0 -41.5t-3 -39.5q-4 -42 -21 -73.5t-44 -51.5t-63 -27t-78 1l-20 -108h-69l24 126q-42 21 -63 67.5t-19 122.5v183q0 65 20 107.5t50 66t65 28.5t65 -4l17 96h70l-21 -110
q50 -22 70.5 -63t19.5 -87v-45h-130v79h-3l-61 -343q9 -9 23.5 -8.5t26.5 6.5q8 11 10 28t4 38v52h130z" />
    <glyph glyph-name="sterling" unicode="&#xa3;" 
d="M37 337v59h63q-23 37 -34.5 79.5t-11.5 86.5q0 51 17.5 89.5t47.5 64.5t71 39t88 13q56 0 102 -22t75 -73q17 -32 18.5 -68.5t1.5 -72.5h-128q0 24 -1.5 46.5t-8.5 40t-23 28.5t-46 11q-24 0 -40 -8.5t-25.5 -23t-13.5 -34t-4 -40.5q0 -18 4.5 -38.5t11.5 -41t15 -40.5
t15 -36h146v-59h-124q5 -14 7 -29.5t2 -29.5q0 -30 -10 -57.5t-27 -52t-38.5 -45t-45.5 -35.5l3 -2q29 16 50 23.5t47 7.5q14 1 31 -1.5t33.5 -5.5t31 -6.5t24.5 -4.5q25 -4 50 5.5t48 25.5l28 -109q-26 -17 -60.5 -26.5t-65.5 -9.5q-36 0 -67.5 9t-63.5 16q-22 5 -40.5 6.5
t-37.5 -1.5t-38.5 -10.5t-42.5 -19.5l-36 94q50 28 77 79t27 109q0 18 -3.5 36t-12.5 34h-86z" />
    <glyph glyph-name="currency" unicode="&#xa4;" 
d="M252 437q-25 0 -46.5 -10.5t-37.5 -28.5t-25 -41t-9 -47t9 -47.5t25 -41.5t37.5 -29t46.5 -11t46.5 11t37 29t24.5 41.5t9 47.5t-9 47t-24.5 41t-37 28.5t-46.5 10.5zM51 181q-17 32 -26 61t-9 67q0 37 8.5 67.5t26.5 61.5l-42 42l76 80l42 -43q27 17 59.5 27.5
t63.5 10.5q33 0 65.5 -10t61.5 -28l43 43l72 -80l-41 -42q18 -30 27 -61t9 -67q0 -34 -8.5 -67.5t-27.5 -61.5l41 -44l-72 -79l-43 43q-29 -17 -59.5 -27.5t-63.5 -10.5q-69 0 -127 38l-42 -43l-76 79z" />
    <glyph glyph-name="yen" unicode="&#xa5;" 
d="M320 319v-60h108v-50h-108v-61h108v-50h-108v-98h-140v98h-112v50h112v61h-112v50h112v60l-198 431h156l79 -197q11 -28 20 -56.5t14 -58.5h2q5 30 14 58.5t20 56.5l79 197h152z" />
    <glyph glyph-name="brokenbar" unicode="&#xa6;" horiz-adv-x="250" 
d="M175 325h-100v350h100v-350zM75 175h100v-350h-100v350z" />
    <glyph glyph-name="section" unicode="&#xa7;" 
d="M191 413q-8 -3 -16.5 -10.5t-15 -18.5t-8.5 -24.5t4 -29.5q10 -26 29 -40l123 -100q17 9 27.5 26t10.5 37q0 23 -12 38t-28 29zM179 12q0 -20 2.5 -37t10.5 -29.5t22.5 -19.5t37.5 -7q22 0 38 14t21 35q4 16 0 31t-13 28t-21 24t-24 20l-119 93q-24 19 -42.5 36t-30.5 36
t-18 43t-6 57q0 44 21 82.5t65 62.5q-30 22 -40.5 51t-10.5 74q0 29 11.5 58t34.5 52t59 37.5t85 14.5q82 0 131.5 -46t44.5 -130h-123q3 33 -12.5 54.5t-50.5 21.5q-23 0 -40.5 -13t-17.5 -42q0 -27 13 -44t33 -33l137 -108q41 -31 63.5 -66t22.5 -89q0 -45 -22 -84
t-61 -63q12 -8 22 -23.5t18 -34t12.5 -38.5t4.5 -38q0 -39 -16.5 -71t-44 -55.5t-63 -36t-72.5 -12.5q-78 0 -121 34.5t-59 88.5q-5 18 -5.5 36t-1.5 36h125z" />
    <glyph glyph-name="dieresis" unicode="&#xa8;" horiz-adv-x="333" 
d="M5 644v115h127v-115h-127zM200 644v115h128v-115h-128z" />
    <glyph glyph-name="copyright" unicode="&#xa9;" horiz-adv-x="830" 
d="M616 306q-4 -36 -20.5 -64t-41 -48t-56.5 -30.5t-66 -10.5q-49 0 -89 17.5t-68.5 48.5t-44 72t-15.5 89q0 49 15 90.5t42.5 71.5t67.5 47t90 17q72 0 122.5 -39t63.5 -110h-89q-7 37 -33.5 57t-64.5 20q-32 0 -55.5 -13t-39 -34t-23.5 -48.5t-8 -56.5q0 -28 8.5 -56
t25 -50.5t40.5 -36.5t55 -14q18 0 34.5 6t29.5 16.5t21.5 25.5t9.5 33h89zM416 57q65 0 123 25t101.5 68.5t68.5 102t25 124.5t-25 123.5t-68.5 100.5t-101.5 68t-123 25q-66 0 -124.5 -25t-102 -68t-68.5 -100.5t-25 -123.5t25 -124.5t68.5 -102t102 -68.5t124.5 -25z
M416 768q81 0 152.5 -30.5t125 -83.5t84 -124.5t30.5 -152.5q0 -82 -30.5 -154t-84 -125.5t-125 -84.5t-152.5 -31q-82 0 -153.5 31t-125 84.5t-84.5 125.5t-31 154q0 81 31 152.5t84.5 124.5t125 83.5t153.5 30.5z" />
    <glyph glyph-name="ordfeminine" unicode="&#xaa;" horiz-adv-x="300" 
d="M189 599q-24 -15 -39.5 -23.5t-25 -16.5t-13.5 -17.5t-4 -26.5q0 -20 8 -32t31 -12q19 0 27.5 9.5t12 24t3 30t0.5 27.5v37zM25 659q0 24 5 44t19 34.5t39 22.5t65 8q43 0 67.5 -9.5t36.5 -24t14.5 -32.5t2.5 -34v-200q0 -26 7 -47h-80q-8 14 -5 34h-2q-11 -19 -31 -31
t-43 -12q-51 0 -74.5 24t-23.5 77q0 29 10 48t27.5 32t40 22.5t47.5 18.5q27 11 37 23.5t5 33.5q-6 21 -40 21q-29 0 -36.5 -15t-7.5 -38h-80z" />
    <glyph glyph-name="guillemotleft" unicode="&#xab;" 
d="M74 204v102l157 141v-112l-94 -79l94 -81v-113zM260 204v102l159 141v-112l-96 -79l96 -81v-113z" />
    <glyph glyph-name="logicalnot" unicode="&#xac;" 
d="M365 291h-339v110h449v-296h-110v186z" />
    <glyph glyph-name="registered" unicode="&#xae;" horiz-adv-x="830" 
d="M461 404q18 0 32.5 2t25 9t16.5 20t6 33q0 21 -10 32t-25 16t-33 6t-33 1h-103v-119h124zM611 161h-97l-94 180h-83v-180h-83v425h205q27 0 59 -3t56 -18q29 -19 39.5 -48t10.5 -62q0 -58 -29.5 -84t-86.5 -30zM416 56q66 0 124 25t101 68.5t68 101.5t25 125
q0 66 -25 124t-68 101t-101 68t-124 25t-124.5 -25t-102 -68t-68.5 -101t-25 -124q0 -67 25 -125t68.5 -101.5t102 -68.5t124.5 -25zM416 -18q-82 0 -153.5 31t-125 84.5t-84.5 125t-31 153.5q0 81 31 152.5t84.5 124.5t125 84t153.5 31q81 0 152.5 -31t124.5 -84t84 -124.5
t31 -152.5q0 -82 -31 -153.5t-84 -125t-124.5 -84.5t-152.5 -31z" />
    <glyph glyph-name="macron" unicode="&#xaf;" horiz-adv-x="333" 
d="M-6 666v74h346v-74h-346z" />
    <glyph glyph-name="macron" unicode="&#x2c9;" horiz-adv-x="333" 
d="M-6 666v74h346v-74h-346z" />
    <glyph glyph-name="degree" unicode="&#xb0;" horiz-adv-x="400" 
d="M129 600q0 -30 21 -50.5t51 -20.5q29 0 49.5 20.5t20.5 50.5q0 29 -20.5 50t-50.5 21q-29 0 -50.5 -21t-20.5 -50zM350 600q0 -31 -12 -58.5t-32.5 -47.5t-47.5 -32t-58 -12t-58.5 12t-47.5 32t-32 47.5t-12 58.5t11.5 58t32 47.5t48 32.5t58.5 12t58 -12t47.5 -32.5
t32.5 -47.5t12 -58z" />
    <glyph glyph-name="plusminus" unicode="&#xb1;" 
d="M26 95h449v-110h-449v110zM195 513h110v-134h170v-110h-170v-134h-110v134h-169v110h169v134z" />
    <glyph glyph-name="twosuperior" unicode="&#xb2;" horiz-adv-x="300" 
d="M157 444q-14 -14 -30 -34.5t-17 -43.5h170v-66h-267l2.5 35t5.5 41q5 23 24.5 54t61.5 73l44 43q11 11 19.5 20t14 18.5t8.5 20.5t3 27q0 31 -12 42.5t-32 11.5q-14 0 -25.5 -5t-16.5 -17q-7 -15 -7 -32v-32h-85v13q0 15 2 38.5t14.5 46t40.5 38.5t81 16q58 -1 94.5 -32
t36.5 -85q0 -37 -14.5 -66.5t-43.5 -56.5z" />
    <glyph glyph-name="threesuperior" unicode="&#xb3;" horiz-adv-x="300" 
d="M105 573q14 1 29 1t28 5q19 8 23.5 23t4.5 32q0 51 -43 51q-14 0 -28.5 -7t-15.5 -29v-31h-85q-3 65 27 98q32 35 101 35t100.5 -31t31.5 -85q0 -15 -3 -30t-10.5 -28.5t-19.5 -22.5t-30 -12v-2q32 -3 53.5 -29.5t19.5 -78.5q0 -67 -33 -104.5t-108 -37.5q-48 0 -75 14
t-40.5 34.5t-16.5 43t-3 40.5v26h85q1 -14 1 -30t4 -30t14.5 -23t31.5 -9q19 0 29 7.5t14.5 19.5t5 27t0.5 31q0 11 -1 25.5t-9 22.5q-13 13 -38 15.5t-44 2.5v66z" />
    <glyph glyph-name="acute" unicode="&#xb4;" horiz-adv-x="333" 
d="M177 775h155l-148 -146h-101z" />
    <glyph glyph-name="mu" unicode="&#xb5;" 
d="M307 0v84h-2q-15 -49 -43 -71t-74 -8v-194h-130v753h130v-386q0 -19 1 -38.5t12 -36.5q16 -18 40 -18q23 0 35 11.5t17.5 28.5t6.5 36.5t1 36.5v366h130v-564h-124z" />
    <glyph glyph-name="mu" unicode="&#x3bc;" 
d="M307 0v84h-2q-15 -49 -43 -71t-74 -8v-194h-130v753h130v-386q0 -19 1 -38.5t12 -36.5q16 -18 40 -18q23 0 35 11.5t17.5 28.5t6.5 36.5t1 36.5v366h130v-564h-124z" />
    <glyph glyph-name="paragraph" unicode="&#xb6;" horiz-adv-x="550" 
d="M366 632h-68v-748h-118v517q-78 0 -117.5 48t-39.5 123q0 51 13.5 85t39.5 54.5t63 29.5t84 9h303v-118h-42v-748h-118v748z" />
    <glyph glyph-name="periodcentered" unicode="&#xb7;" horiz-adv-x="333" 
d="M233 315v-132h-132v132h132z" />
    <glyph glyph-name="periodcentered" unicode="&#x2219;" horiz-adv-x="333" 
d="M233 315v-132h-132v132h132z" />
    <glyph glyph-name="cedilla" unicode="&#xb8;" horiz-adv-x="333" 
d="M58 -161q24 -8 42.5 -12t43.5 -4q17 0 32 13.5t12 32.5q-5 19 -20 24q-15 8 -32.5 5t-32.5 -8l-21 20l59 90h53l-42 -61l2 -2q12 6 31 6t36.5 -5t31.5 -19q12 -9 17 -24t5 -29t-3 -23.5t-10 -22.5q-14 -18 -32.5 -28.5t-39.5 -15.5t-43 -4.5t-43 4.5q-17 5 -32.5 10.5
t-32.5 10.5z" />
    <glyph glyph-name="onesuperior" unicode="&#xb9;" horiz-adv-x="300" 
d="M160 612h-110v60q24 0 45 3.5t38.5 12.5t30.5 24t20 38h67v-450h-91v312z" />
    <glyph glyph-name="ordmasculine" unicode="&#xba;" horiz-adv-x="300" 
d="M106 535q0 -12 0.5 -23t4.5 -20t13 -14.5t25 -5.5t25 5.5t13.5 14.5t5 20t0.5 23v113q0 32 -7 46t-37 14t-36.5 -14t-6.5 -46v-113zM150 768q47 0 73 -13.5t38 -38t14.5 -60t2.5 -78.5q0 -44 -4.5 -75.5t-18 -52t-38.5 -30t-66 -8.5q-42 -1 -67.5 8.5t-39 30t-18 52
t-4.5 75.5q0 43 2.5 78.5t14.5 60t38 38t73 13.5z" />
    <glyph glyph-name="guillemotright" unicode="&#xbb;" 
d="M269 175l95 85l-95 75v112l157 -141v-102l-157 -142v113zM81 175l96 85l-96 75v112l159 -141v-102l-159 -142v113z" />
    <glyph glyph-name="onequarter" unicode="&#xbc;" horiz-adv-x="750" 
d="M596 157v183h-2l-89 -183h91zM130 612h-110v60q24 0 45 3.5t38.5 12.5t30.5 24t20 38h67v-450h-91v312zM131 0l425 738h75l-425 -738h-75zM687 443v-286h42v-66h-42v-91h-91v91h-158v66l148 286h101z" />
    <glyph glyph-name="onehalf" unicode="&#xbd;" horiz-adv-x="750" 
d="M122 612h-110v60q24 0 45 3.5t38.5 12.5t30.5 24t20 38h67v-450h-91v312zM108 0l425 738h75l-425 -738h-75zM609 144q-14 -14 -30 -34.5t-17 -43.5h170v-66h-267l2.5 35t5.5 41q5 23 24.5 54t61.5 73l44 43q11 11 19.5 20t14 18.5t8.5 20.5t3 27q0 31 -12 42.5t-32 11.5
q-14 0 -25.5 -5t-16.5 -17q-7 -15 -7 -32v-32h-85v13q0 15 2 38.5t14.5 46t40.5 38.5t81 16q58 -1 94.5 -32t36.5 -85q0 -37 -14.5 -66.5t-43.5 -56.5z" />
    <glyph glyph-name="threequarters" unicode="&#xbe;" horiz-adv-x="750" 
d="M606 157v183h-2l-89 -183h91zM159 0l425 738h75l-425 -738h-75zM105 573q14 1 29 1t28 5q19 8 23.5 23t4.5 32q0 51 -43 51q-14 0 -28.5 -7t-15.5 -29v-31h-85q-3 65 27 98q32 35 101 35t100.5 -31t31.5 -85q0 -15 -3 -30t-10.5 -28.5t-19.5 -22.5t-30 -12v-2
q32 -3 53.5 -29.5t19.5 -78.5q0 -67 -33 -104.5t-108 -37.5q-48 0 -75 14t-40.5 34.5t-16.5 43t-3 40.5v26h85q1 -14 1 -30t4 -30t14.5 -23t31.5 -9q19 0 29 7.5t14.5 19.5t5 27t0.5 31q0 11 -1 25.5t-9 22.5q-13 13 -38 15.5t-44 2.5v66zM697 443v-286h42v-66h-42v-91h-91
v91h-158v66l148 286h101z" />
    <glyph glyph-name="questiondown" unicode="&#xbf;" 
d="M225 450v129h128v-129h-128zM448 25q6 -111 -46 -163t-149 -52q-89 0 -141 49.5t-52 136.5q0 28 4.5 50.5t13 42.5t21.5 39t30 41q18 19 34.5 38t34.5 38q23 29 29.5 63t6.5 69h117q1 -17 0 -34.5t-3 -34.5q-3 -36 -13 -62t-25.5 -48t-34.5 -43.5t-38 -47.5
q-11 -15 -18.5 -27.5t-12 -25t-6.5 -26.5t-2 -33q0 -44 13.5 -62.5t43.5 -18.5q23 0 35.5 5t20.5 18q11 20 11 43t2 45h124z" />
    <glyph glyph-name="Agrave" unicode="&#xc0;" horiz-adv-x="556" 
d="M268 961l94 -146h-101l-148 146h155zM218 300h120l-38 213q-5 26 -8 52l-6 52q-1 13 -2 25.5t-3 24.5h-2q-2 -12 -3 -24.5t-2 -25.5l-6 -52t-8 -52zM9 0l179 750h189l170 -750h-150l-37 190h-164l-37 -190h-150z" />
    <glyph glyph-name="Aacute" unicode="&#xc1;" horiz-adv-x="556" 
d="M289 961h155l-148 -146h-101zM218 300h120l-38 213q-5 26 -8 52l-6 52q-1 13 -2 25.5t-3 24.5h-2q-2 -12 -3 -24.5t-2 -25.5l-6 -52t-8 -52zM9 0l179 750h189l170 -750h-150l-37 190h-164l-37 -190h-150z" />
    <glyph glyph-name="Acircumflex" unicode="&#xc2;" horiz-adv-x="556" 
d="M218 300h120l-38 213q-5 26 -8 52l-6 52q-1 13 -2 25.5t-3 24.5h-2q-2 -12 -3 -24.5t-2 -25.5l-6 -52t-8 -52zM330 956l115 -146h-114l-63 82l-64 -82h-112l113 146h125zM9 0l179 750h189l170 -750h-150l-37 190h-164l-37 -190h-150z" />
    <glyph glyph-name="Atilde" unicode="&#xc3;" horiz-adv-x="556" 
d="M218 300h120l-38 213q-5 26 -8 52l-6 52q-1 13 -2 25.5t-3 24.5h-2q-2 -12 -3 -24.5t-2 -25.5l-6 -52t-8 -52zM462 930q-7 -38 -20 -61.5t-29 -37t-34 -18t-34 -4.5q-8 0 -20 2.5t-24.5 6t-24.5 7.5t-19 6q-17 6 -37 11.5t-36 -3.5q-6 -3 -10.5 -9t-8 -12t-5.5 -10.5
t-2 -5.5h-62q2 31 14 54t28.5 38.5t35.5 23t36 7.5q12 0 21.5 -1.5t17.5 -3.5t17 -5.5t20 -7.5q5 -2 13 -5t17 -6t17.5 -5.5t13.5 -2.5q21 0 33 11t17 31h65zM9 0l179 750h189l170 -750h-150l-37 190h-164l-37 -190h-150z" />
    <glyph glyph-name="Adieresis" unicode="&#xc4;" horiz-adv-x="556" 
d="M117 830v115h127v-115h-127zM312 830v115h128v-115h-128zM218 300h120l-38 213q-5 26 -8 52l-6 52q-1 13 -2 25.5t-3 24.5h-2q-2 -12 -3 -24.5t-2 -25.5l-6 -52t-8 -52zM9 0l179 750h189l170 -750h-150l-37 190h-164l-37 -190h-150z" />
    <glyph glyph-name="Aring" unicode="&#xc5;" horiz-adv-x="556" 
d="M279 942q-24 0 -41 -17t-17 -41q0 -23 17.5 -40t40.5 -17t40.5 17t17.5 40t-17.5 40.5t-40.5 17.5zM218 300h120l-38 213q-5 26 -8 52l-6 52q-1 13 -2 25.5t-3 24.5h-2q-2 -12 -3 -24.5t-2 -25.5l-6 -52t-8 -52zM279 778q-22 0 -41.5 8.5t-34 23t-23 33.5t-8.5 41
t8.5 41.5t23 34t34 23t41.5 8.5t41.5 -8.5t33.5 -23t22.5 -34t8.5 -41.5q0 -45 -30.5 -75.5t-75.5 -30.5zM9 0l179 750h189l170 -750h-150l-37 190h-164l-37 -190h-150z" />
    <glyph glyph-name="AE" unicode="&#xc6;" horiz-adv-x="778" 
d="M338 611l-107 -309h134v309h-27zM365 192h-172l-65 -192h-150l288 750h484v-110h-245v-190h229v-110h-229v-230h245v-110h-385v192z" />
    <glyph glyph-name="Ccedilla" unicode="&#xc7;" horiz-adv-x="556" 
d="M260 -16q-72 6 -113 34t-61.5 73.5t-25.5 106t-5 130.5v107q2 72 9 133t31.5 105.5t72.5 69.5t132 25q190 -3 205 -194q2 -14 3 -28.5t0 -28.5h-138q-2 18 -3.5 42t-7.5 45t-19.5 36t-39.5 15q-41 0 -62 -21.5t-29.5 -51.5t-9 -62t-0.5 -54v-208q0 -23 2.5 -51.5
t12 -53.5t30 -41.5t56.5 -16.5q29 0 43 20t20 48t6.5 57t1.5 47h141q-1 -11 -1.5 -21.5t-1.5 -21.5q-3 -50 -13 -93t-32.5 -75.5t-59 -51.5t-91.5 -21l-31 -44l2 -2q12 6 31 6t36.5 -5t31.5 -19q12 -9 17 -24t5 -29t-3 -23.5t-10 -22.5q-14 -18 -32.5 -28.5t-39.5 -15.5
t-43 -4.5t-43 4.5q-17 5 -32.5 10.5t-32.5 10.5l19 42q24 -8 42.5 -12t43.5 -4q17 0 32 13.5t12 32.5q-5 19 -20 24q-15 8 -32.5 5t-32.5 -8l-21 20z" />
    <glyph glyph-name="Egrave" unicode="&#xc8;" 
d="M240 961l94 -146h-101l-148 146h155zM64 0v750h394v-110h-254v-189h234v-110h-234v-231h254v-110h-394z" />
    <glyph glyph-name="Eacute" unicode="&#xc9;" 
d="M261 961h155l-148 -146h-101zM64 0v750h394v-110h-254v-189h234v-110h-234v-231h254v-110h-394z" />
    <glyph glyph-name="Ecircumflex" unicode="&#xca;" 
d="M312 956l115 -146h-114l-63 82l-64 -82h-112l113 146h125zM64 0v750h394v-110h-254v-189h234v-110h-234v-231h254v-110h-394z" />
    <glyph glyph-name="Edieresis" unicode="&#xcb;" 
d="M89 830v115h127v-115h-127zM284 830v115h128v-115h-128zM64 0v750h394v-110h-254v-189h234v-110h-234v-231h254v-110h-394z" />
    <glyph glyph-name="Igrave" unicode="&#xcc;" horiz-adv-x="278" 
d="M129 961l94 -146h-101l-148 146h155zM69 0v750h140v-750h-140z" />
    <glyph glyph-name="Iacute" unicode="&#xcd;" horiz-adv-x="278" 
d="M150 961h155l-148 -146h-101zM69 0v750h140v-750h-140z" />
    <glyph glyph-name="Icircumflex" unicode="&#xce;" horiz-adv-x="278" 
d="M201 956l115 -146h-114l-63 82l-64 -82h-112l113 146h125zM69 0v750h140v-750h-140z" />
    <glyph glyph-name="Idieresis" unicode="&#xcf;" horiz-adv-x="278" 
d="M-22 830v115h127v-115h-127zM173 830v115h128v-115h-128zM69 0v750h140v-750h-140z" />
    <glyph glyph-name="Eth" unicode="&#xd0;" horiz-adv-x="611" 
d="M212 473h105v-67h-105v-296h92q38 0 59 20t30.5 55.5t11 84t1.5 105.5t-1.5 105.5t-11 84t-30.5 55.5t-59 20h-92v-167zM72 406h-52v67h52v277h292q13 0 31 -3.5t38 -13t40 -26t36 -42.5q24 -39 32.5 -102t8.5 -157q0 -56 -2 -113.5t-12.5 -110t-34 -95t-66.5 -67.5
q-23 -14 -50.5 -17t-53.5 -3h-259v406z" />
    <glyph glyph-name="Ntilde" unicode="&#xd1;" horiz-adv-x="611" 
d="M489 930q-7 -38 -20 -61.5t-29 -37t-34 -18t-34 -4.5q-8 0 -20 2.5t-24.5 6t-24.5 7.5t-19 6q-17 6 -37 11.5t-36 -3.5q-6 -3 -10.5 -9t-8 -12t-5.5 -10.5t-2 -5.5h-62q2 31 14 54t28.5 38.5t35.5 23t36 7.5q12 0 21.5 -1.5t17.5 -3.5t17 -5.5t20 -7.5q5 -2 13 -5t17 -6
t17.5 -5.5t13.5 -2.5q21 0 33 11t17 31h65zM403 750h140v-750h-146l-109 267q-28 67 -51.5 138t-48.5 160h-2q4 -47 8 -102t7 -112t5 -111t2 -99v-141h-140v750h145l109 -273q27 -65 50.5 -136t49.5 -162h2q-4 51 -7.5 105t-6.5 108t-5 107t-2 104v147z" />
    <glyph glyph-name="Ograve" unicode="&#xd2;" horiz-adv-x="611" 
d="M295 961l94 -146h-101l-148 146h155zM205 258q0 -23 2.5 -51.5t12 -53.5t30 -41.5t56.5 -16.5q37 0 57.5 17t30.5 43.5t11.5 57t1.5 57.5v192q0 22 -1 55t-10.5 64t-30 52.5t-59.5 21.5q-41 0 -62 -21.5t-29.5 -51.5t-9 -62t-0.5 -54v-208zM61 435q2 72 9 133t31.5 105.5
t72.5 69.5t132 25t132 -25t72.5 -69.5t31.5 -105.5t9 -133v-107q0 -75 -6 -138.5t-30.5 -109.5t-73.5 -72t-135 -26t-135 26t-73.5 72t-30.5 109.5t-6 138.5v107z" />
    <glyph glyph-name="Oacute" unicode="&#xd3;" horiz-adv-x="611" 
d="M316 961h155l-148 -146h-101zM205 258q0 -23 2.5 -51.5t12 -53.5t30 -41.5t56.5 -16.5q37 0 57.5 17t30.5 43.5t11.5 57t1.5 57.5v192q0 22 -1 55t-10.5 64t-30 52.5t-59.5 21.5q-41 0 -62 -21.5t-29.5 -51.5t-9 -62t-0.5 -54v-208zM61 435q2 72 9 133t31.5 105.5
t72.5 69.5t132 25t132 -25t72.5 -69.5t31.5 -105.5t9 -133v-107q0 -75 -6 -138.5t-30.5 -109.5t-73.5 -72t-135 -26t-135 26t-73.5 72t-30.5 109.5t-6 138.5v107z" />
    <glyph glyph-name="Ocircumflex" unicode="&#xd4;" horiz-adv-x="611" 
d="M367 956l115 -146h-114l-63 82l-64 -82h-112l113 146h125zM205 258q0 -23 2.5 -51.5t12 -53.5t30 -41.5t56.5 -16.5q37 0 57.5 17t30.5 43.5t11.5 57t1.5 57.5v192q0 22 -1 55t-10.5 64t-30 52.5t-59.5 21.5q-41 0 -62 -21.5t-29.5 -51.5t-9 -62t-0.5 -54v-208zM61 435
q2 72 9 133t31.5 105.5t72.5 69.5t132 25t132 -25t72.5 -69.5t31.5 -105.5t9 -133v-107q0 -75 -6 -138.5t-30.5 -109.5t-73.5 -72t-135 -26t-135 26t-73.5 72t-30.5 109.5t-6 138.5v107z" />
    <glyph glyph-name="Otilde" unicode="&#xd5;" horiz-adv-x="611" 
d="M489 930q-7 -38 -20 -61.5t-29 -37t-34 -18t-34 -4.5q-8 0 -20 2.5t-24.5 6t-24.5 7.5t-19 6q-17 6 -37 11.5t-36 -3.5q-6 -3 -10.5 -9t-8 -12t-5.5 -10.5t-2 -5.5h-62q2 31 14 54t28.5 38.5t35.5 23t36 7.5q12 0 21.5 -1.5t17.5 -3.5t17 -5.5t20 -7.5q5 -2 13 -5t17 -6
t17.5 -5.5t13.5 -2.5q21 0 33 11t17 31h65zM205 258q0 -23 2.5 -51.5t12 -53.5t30 -41.5t56.5 -16.5q37 0 57.5 17t30.5 43.5t11.5 57t1.5 57.5v192q0 22 -1 55t-10.5 64t-30 52.5t-59.5 21.5q-41 0 -62 -21.5t-29.5 -51.5t-9 -62t-0.5 -54v-208zM61 435q2 72 9 133
t31.5 105.5t72.5 69.5t132 25t132 -25t72.5 -69.5t31.5 -105.5t9 -133v-107q0 -75 -6 -138.5t-30.5 -109.5t-73.5 -72t-135 -26t-135 26t-73.5 72t-30.5 109.5t-6 138.5v107z" />
    <glyph glyph-name="Odieresis" unicode="&#xd6;" horiz-adv-x="611" 
d="M144 830v115h127v-115h-127zM339 830v115h128v-115h-128zM205 258q0 -23 2.5 -51.5t12 -53.5t30 -41.5t56.5 -16.5q37 0 57.5 17t30.5 43.5t11.5 57t1.5 57.5v192q0 22 -1 55t-10.5 64t-30 52.5t-59.5 21.5q-41 0 -62 -21.5t-29.5 -51.5t-9 -62t-0.5 -54v-208zM61 435
q2 72 9 133t31.5 105.5t72.5 69.5t132 25t132 -25t72.5 -69.5t31.5 -105.5t9 -133v-107q0 -75 -6 -138.5t-30.5 -109.5t-73.5 -72t-135 -26t-135 26t-73.5 72t-30.5 109.5t-6 138.5v107z" />
    <glyph glyph-name="multiply" unicode="&#xd7;" 
d="M26 393l78 78l144 -144l149 149l78 -78l-149 -149l149 -149l-78 -78l-149 149l-144 -144l-78 78l144 144z" />
    <glyph glyph-name="Oslash" unicode="&#xd8;" horiz-adv-x="611" 
d="M393 575q-1 16 -5.5 30.5t-14.5 25.5t-26 17.5t-41 6.5q-41 0 -61.5 -21t-29.5 -55t-9.5 -77.5t-0.5 -87.5q0 -54 -1 -86.5t0 -52.5h2zM215 172q7 -35 26 -56t65 -21q40 0 61 21t30 52.5t9.5 67t0.5 65.5q0 44 1 88t-1 89h-2zM520 652q11 -23 17 -49.5t9 -55t3.5 -57
t1.5 -55.5v-107q0 -75 -6 -138.5t-30.5 -109.5t-73.5 -72t-135 -26q-32 0 -57.5 2.5t-46.5 8.5t-38 16.5t-33 26.5l-46 -74l-49 30l59 94q-11 22 -18 50.5t-10.5 60t-4.5 65t-1 66.5v107q2 72 9 133t31.5 105.5t72.5 69.5t132 25q29 0 53.5 -2t46 -8.5t41 -18.5t37.5 -31
l44 71l50 -35z" />
    <glyph glyph-name="Ugrave" unicode="&#xd9;" horiz-adv-x="611" 
d="M295 961l94 -146h-101l-148 146h155zM404 750h140v-523q0 -62 -11.5 -108t-38.5 -76.5t-72.5 -45.5t-114.5 -15t-115 15t-73.5 45.5t-39 76.5t-11.5 108v523h140v-511q0 -27 2.5 -53t12 -46t29.5 -32.5t56 -12.5q34 0 53.5 12.5t29 32.5t11.5 46t2 53v511z" />
    <glyph glyph-name="Uacute" unicode="&#xda;" horiz-adv-x="611" 
d="M316 961h155l-148 -146h-101zM404 750h140v-523q0 -62 -11.5 -108t-38.5 -76.5t-72.5 -45.5t-114.5 -15t-115 15t-73.5 45.5t-39 76.5t-11.5 108v523h140v-511q0 -27 2.5 -53t12 -46t29.5 -32.5t56 -12.5q34 0 53.5 12.5t29 32.5t11.5 46t2 53v511z" />
    <glyph glyph-name="Ucircumflex" unicode="&#xdb;" horiz-adv-x="611" 
d="M367 956l115 -146h-114l-63 82l-64 -82h-112l113 146h125zM404 750h140v-523q0 -62 -11.5 -108t-38.5 -76.5t-72.5 -45.5t-114.5 -15t-115 15t-73.5 45.5t-39 76.5t-11.5 108v523h140v-511q0 -27 2.5 -53t12 -46t29.5 -32.5t56 -12.5q34 0 53.5 12.5t29 32.5t11.5 46
t2 53v511z" />
    <glyph glyph-name="Udieresis" unicode="&#xdc;" horiz-adv-x="611" 
d="M144 830v115h127v-115h-127zM339 830v115h128v-115h-128zM404 750h140v-523q0 -62 -11.5 -108t-38.5 -76.5t-72.5 -45.5t-114.5 -15t-115 15t-73.5 45.5t-39 76.5t-11.5 108v523h140v-511q0 -27 2.5 -53t12 -46t29.5 -32.5t56 -12.5q34 0 53.5 12.5t29 32.5t11.5 46t2 53
v511z" />
    <glyph glyph-name="Yacute" unicode="&#xdd;" horiz-adv-x="556" 
d="M289 961h155l-148 -146h-101zM244 553q11 -28 19.5 -56.5t13.5 -58.5h2q8 44 20.5 77t25.5 65l67 170h153l-198 -431v-319h-140v319l-195 431h153z" />
    <glyph glyph-name="Thorn" unicode="&#xde;" horiz-adv-x="556" 
d="M208 306h75q57 0 79.5 25.5t22.5 82.5t-22.5 82.5t-79.5 25.5h-75v-216zM68 750h140v-118h134q55 0 91 -18.5t57.5 -49t30 -70t8.5 -80.5q0 -56 -17.5 -97t-45.5 -68t-63.5 -40t-72.5 -13h-122v-196h-140v750z" />
    <glyph glyph-name="germandbls" unicode="&#xdf;" 
d="M354 434q51 -13 70.5 -66t20.5 -144q0 -40 -4.5 -80t-18 -73t-36 -56t-58.5 -29q-23 -4 -47.5 1t-44.5 13v92q8 -4 15.5 -5t13.5 -1q16 0 25.5 9.5t15 23.5t7.5 32t2 35l-1 117q0 36 -15 55.5t-54 21.5v95q16 1 27.5 3.5t19 9t11 20t3.5 37.5v61q0 26 -14 44t-44 18
q-22 0 -33.5 -12t-17 -29.5t-6.5 -37.5t-1 -35v-554h-130v533q0 33 3.5 74t21.5 76.5t56.5 60t108.5 24.5q51 0 85.5 -17t56.5 -44t31.5 -61t9.5 -67q0 -68 -22 -100t-57 -43v-2z" />
    <glyph glyph-name="agrave" unicode="&#xe0;" 
d="M240 775l94 -146h-101l-148 146h155zM299 297q-24 -17 -51.5 -34t-53.5 -38q-14 -12 -18 -31t-4 -37q0 -32 12.5 -52t48.5 -20q29 0 42.5 16t18.5 39t4.5 49.5t0.5 46.5v61zM317 0q-7 14 -8.5 28.5t0.5 29.5h-2q-11 -17 -24 -31t-28 -23q-30 -19 -62 -19q-79 0 -115 40.5
t-36 128.5q0 48 16 80t42.5 53.5t61.5 37t73 31.5q42 17 57 38t7 56q-5 19 -20 24t-41 5q-44 0 -56.5 -22t-11.5 -60h-124q0 40 7.5 73.5t29.5 57.5t60.5 37.5t99.5 13.5q66 0 104 -15.5t56.5 -40t22.5 -54t3 -57.5v-333q0 -38 11 -79h-123z" />
    <glyph glyph-name="aacute" unicode="&#xe1;" 
d="M261 775h155l-148 -146h-101zM299 297q-24 -17 -51.5 -34t-53.5 -38q-14 -12 -18 -31t-4 -37q0 -32 12.5 -52t48.5 -20q29 0 42.5 16t18.5 39t4.5 49.5t0.5 46.5v61zM317 0q-7 14 -8.5 28.5t0.5 29.5h-2q-11 -17 -24 -31t-28 -23q-30 -19 -62 -19q-79 0 -115 40.5
t-36 128.5q0 48 16 80t42.5 53.5t61.5 37t73 31.5q42 17 57 38t7 56q-5 19 -20 24t-41 5q-44 0 -56.5 -22t-11.5 -60h-124q0 40 7.5 73.5t29.5 57.5t60.5 37.5t99.5 13.5q66 0 104 -15.5t56.5 -40t22.5 -54t3 -57.5v-333q0 -38 11 -79h-123z" />
    <glyph glyph-name="acircumflex" unicode="&#xe2;" 
d="M299 297q-24 -17 -51.5 -34t-53.5 -38q-14 -12 -18 -31t-4 -37q0 -32 12.5 -52t48.5 -20q29 0 42.5 16t18.5 39t4.5 49.5t0.5 46.5v61zM312 770l115 -146h-114l-63 82l-64 -82h-112l113 146h125zM317 0q-7 14 -8.5 28.5t0.5 29.5h-2q-11 -17 -24 -31t-28 -23
q-30 -19 -62 -19q-79 0 -115 40.5t-36 128.5q0 48 16 80t42.5 53.5t61.5 37t73 31.5q42 17 57 38t7 56q-5 19 -20 24t-41 5q-44 0 -56.5 -22t-11.5 -60h-124q0 40 7.5 73.5t29.5 57.5t60.5 37.5t99.5 13.5q66 0 104 -15.5t56.5 -40t22.5 -54t3 -57.5v-333q0 -38 11 -79h-123
z" />
    <glyph glyph-name="atilde" unicode="&#xe3;" 
d="M299 297q-24 -17 -51.5 -34t-53.5 -38q-14 -12 -18 -31t-4 -37q0 -32 12.5 -52t48.5 -20q29 0 42.5 16t18.5 39t4.5 49.5t0.5 46.5v61zM434 744q-7 -38 -20 -61.5t-29 -37t-34 -18t-34 -4.5q-8 0 -20 2.5t-24.5 6t-24.5 7.5t-19 6q-17 6 -37 11.5t-36 -3.5
q-6 -3 -10.5 -9t-8 -12t-5.5 -10.5t-2 -5.5h-62q2 31 14 54t28.5 38.5t35.5 23t36 7.5q12 0 21.5 -1.5t17.5 -3.5t17 -5.5t20 -7.5q5 -2 13 -5t17 -6t17.5 -5.5t13.5 -2.5q21 0 33 11t17 31h65zM317 0q-7 14 -8.5 28.5t0.5 29.5h-2q-11 -17 -24 -31t-28 -23q-30 -19 -62 -19
q-79 0 -115 40.5t-36 128.5q0 48 16 80t42.5 53.5t61.5 37t73 31.5q42 17 57 38t7 56q-5 19 -20 24t-41 5q-44 0 -56.5 -22t-11.5 -60h-124q0 40 7.5 73.5t29.5 57.5t60.5 37.5t99.5 13.5q66 0 104 -15.5t56.5 -40t22.5 -54t3 -57.5v-333q0 -38 11 -79h-123z" />
    <glyph glyph-name="adieresis" unicode="&#xe4;" 
d="M89 644v115h127v-115h-127zM284 644v115h128v-115h-128zM299 297q-24 -17 -51.5 -34t-53.5 -38q-14 -12 -18 -31t-4 -37q0 -32 12.5 -52t48.5 -20q29 0 42.5 16t18.5 39t4.5 49.5t0.5 46.5v61zM317 0q-7 14 -8.5 28.5t0.5 29.5h-2q-11 -17 -24 -31t-28 -23
q-30 -19 -62 -19q-79 0 -115 40.5t-36 128.5q0 48 16 80t42.5 53.5t61.5 37t73 31.5q42 17 57 38t7 56q-5 19 -20 24t-41 5q-44 0 -56.5 -22t-11.5 -60h-124q0 40 7.5 73.5t29.5 57.5t60.5 37.5t99.5 13.5q66 0 104 -15.5t56.5 -40t22.5 -54t3 -57.5v-333q0 -38 11 -79h-123
z" />
    <glyph glyph-name="aring" unicode="&#xe5;" 
d="M236 786q-24 0 -41 -17t-17 -41q0 -23 17.5 -40t40.5 -17t40.5 17t17.5 40t-17.5 40.5t-40.5 17.5zM299 297q-24 -17 -51.5 -34t-53.5 -38q-14 -12 -18 -31t-4 -37q0 -32 12.5 -52t48.5 -20q29 0 42.5 16t18.5 39t4.5 49.5t0.5 46.5v61zM236 622q-22 0 -41.5 8.5t-34 23
t-23 33.5t-8.5 41t8.5 41.5t23 34t34 23t41.5 8.5t41.5 -8.5t33.5 -23t22.5 -34t8.5 -41.5q0 -45 -30.5 -75.5t-75.5 -30.5zM317 0q-7 14 -8.5 28.5t0.5 29.5h-2q-11 -17 -24 -31t-28 -23q-30 -19 -62 -19q-79 0 -115 40.5t-36 128.5q0 48 16 80t42.5 53.5t61.5 37t73 31.5
q42 17 57 38t7 56q-5 19 -20 24t-41 5q-44 0 -56.5 -22t-11.5 -60h-124q0 40 7.5 73.5t29.5 57.5t60.5 37.5t99.5 13.5q66 0 104 -15.5t56.5 -40t22.5 -54t3 -57.5v-333q0 -38 11 -79h-123z" />
    <glyph glyph-name="ae" unicode="&#xe6;" horiz-adv-x="722" 
d="M541 359v56q0 21 -4.5 33.5t-12.5 19.5t-18.5 9t-21.5 2q-29 0 -42 -19t-16 -45v-56h115zM296 296q-20 -15 -41.5 -26.5t-39.5 -25.5t-29.5 -33.5t-11.5 -50.5q0 -41 11.5 -58t40.5 -17q38 0 54.5 24.5t15.5 72.5v114zM46 400q-1 23 2.5 44t10.5 43q9 29 28.5 47t45 28
t54.5 13.5t57 3.5q35 0 68 -8t62 -28q27 22 56 29t61 7q38 0 70 -8t56 -28.5t38 -54t16 -84.5v-145h-245v-50v-40q0 -21 5 -39.5t17.5 -31.5t37.5 -13q26 0 39.5 14t15.5 40v53h131q1 -41 -6.5 -78.5t-28.5 -66t-57.5 -45.5t-93.5 -17q-48 0 -78.5 13t-57.5 46
q-21 -32 -57.5 -45.5t-73.5 -13.5q-83 0 -129 34.5t-46 123.5q0 35 5 60t17 45t32 36t50 33q29 16 56.5 26.5t48.5 21.5t34 25.5t13 39.5q0 30 -16.5 39.5t-43.5 9.5q-23 0 -35.5 -5.5t-18.5 -16t-7.5 -25t-2.5 -32.5h-130z" />
    <glyph glyph-name="ccedilla" unicode="&#xe7;" horiz-adv-x="444" 
d="M202 -13q-76 5 -116.5 54.5t-36.5 154.5v183q0 59 13.5 98t37 61.5t56 31.5t69.5 9q49 0 83 -14t55.5 -37.5t30.5 -53.5t9 -61v-45h-130v63q-3 48 -45 48q-19 0 -29 -10t-14.5 -27t-5 -40t-0.5 -49v-133q-1 -41 1 -66.5t8 -40t15.5 -20.5t24.5 -8q15 0 23.5 7t12.5 18
t5.5 26t3.5 32v52h130v-52q0 -81 -33.5 -127.5t-114.5 -53.5l-33 -48l2 -2q12 6 31 6t36.5 -5t31.5 -19q12 -9 17 -24t5 -29t-3 -23.5t-10 -22.5q-14 -18 -32.5 -28.5t-39.5 -15.5t-43 -4.5t-43 4.5q-17 5 -32.5 10.5t-32.5 10.5l19 42q24 -8 42.5 -12t43.5 -4q17 0 32 13.5
t12 32.5q-5 19 -20 24q-15 8 -32.5 5t-32.5 -8l-21 20z" />
    <glyph glyph-name="egrave" unicode="&#xe8;" 
d="M313 355v49q-1 43 -15 59t-53 16q-24 0 -37 -8.5t-18.5 -23t-6 -32.5t-0.5 -37v-23h130zM240 775l94 -146h-101l-148 146h155zM53 370q-5 100 44 154.5t146 54.5q68 0 107.5 -17t60 -49t26.5 -78t6 -104v-76h-260v-82q0 -28 5.5 -45t14.5 -26.5t21 -13t27 -3.5
q36 0 49 26t11 80h130q2 -47 -7.5 -85t-31 -65t-56.5 -41.5t-85 -14.5q-113 0 -161.5 56t-46.5 181v148z" />
    <glyph glyph-name="eacute" unicode="&#xe9;" 
d="M313 355v49q-1 43 -15 59t-53 16q-24 0 -37 -8.5t-18.5 -23t-6 -32.5t-0.5 -37v-23h130zM261 775h155l-148 -146h-101zM53 370q-5 100 44 154.5t146 54.5q68 0 107.5 -17t60 -49t26.5 -78t6 -104v-76h-260v-82q0 -28 5.5 -45t14.5 -26.5t21 -13t27 -3.5q36 0 49 26t11 80
h130q2 -47 -7.5 -85t-31 -65t-56.5 -41.5t-85 -14.5q-113 0 -161.5 56t-46.5 181v148z" />
    <glyph glyph-name="ecircumflex" unicode="&#xea;" 
d="M313 355v49q-1 43 -15 59t-53 16q-24 0 -37 -8.5t-18.5 -23t-6 -32.5t-0.5 -37v-23h130zM312 770l115 -146h-114l-63 82l-64 -82h-112l113 146h125zM53 370q-5 100 44 154.5t146 54.5q68 0 107.5 -17t60 -49t26.5 -78t6 -104v-76h-260v-82q0 -28 5.5 -45t14.5 -26.5
t21 -13t27 -3.5q36 0 49 26t11 80h130q2 -47 -7.5 -85t-31 -65t-56.5 -41.5t-85 -14.5q-113 0 -161.5 56t-46.5 181v148z" />
    <glyph glyph-name="edieresis" unicode="&#xeb;" 
d="M89 644v115h127v-115h-127zM284 644v115h128v-115h-128zM313 355v49q-1 43 -15 59t-53 16q-24 0 -37 -8.5t-18.5 -23t-6 -32.5t-0.5 -37v-23h130zM53 370q-5 100 44 154.5t146 54.5q68 0 107.5 -17t60 -49t26.5 -78t6 -104v-76h-260v-82q0 -28 5.5 -45t14.5 -26.5t21 -13
t27 -3.5q36 0 49 26t11 80h130q2 -47 -7.5 -85t-31 -65t-56.5 -41.5t-85 -14.5q-113 0 -161.5 56t-46.5 181v148z" />
    <glyph glyph-name="igrave" unicode="&#xec;" horiz-adv-x="278" 
d="M129 775l94 -146h-101l-148 146h155zM74 0v564h130v-564h-130z" />
    <glyph glyph-name="iacute" unicode="&#xed;" horiz-adv-x="278" 
d="M150 775h155l-148 -146h-101zM74 0v564h130v-564h-130z" />
    <glyph glyph-name="icircumflex" unicode="&#xee;" horiz-adv-x="278" 
d="M191 770l115 -146h-114l-63 82l-64 -82h-112l113 146h125zM74 0v564h130v-564h-130z" />
    <glyph glyph-name="idieresis" unicode="&#xef;" horiz-adv-x="278" 
d="M-22 644v115h127v-115h-127zM173 644v115h128v-115h-128zM74 0v564h130v-564h-130z" />
    <glyph glyph-name="eth" unicode="&#xf0;" 
d="M183 184q0 -26 2 -44.5t8.5 -30.5t20 -18t36.5 -6t36.5 6t20 18t8.5 30.5t2 44.5v162q0 20 -1 39t-7.5 34t-20 24.5t-38.5 9.5t-38.5 -9.5t-20 -24.5t-7.5 -34t-1 -39v-162zM168 666q-16 11 -33.5 20.5t-35.5 18.5l87 74q18 -8 37 -18t36 -22l50 40l45 -35l-50 -40
q25 -18 51 -45t46 -67t33 -94.5t13 -127.5v-108q0 -74 -7 -126t-28 -86t-59.5 -49.5t-102.5 -15.5q-63 0 -102 15.5t-60 49.5t-28 86t-7 126q0 75 7.5 128.5t25.5 87.5t48.5 50t77.5 16q29 0 52.5 -6t37.5 -20l2 2q-5 16 -14.5 33t-22 32.5t-26 28t-25.5 20.5l-59 -47
l-45 35z" />
    <glyph glyph-name="ntilde" unicode="&#xf1;" 
d="M434 744q-7 -38 -20 -61.5t-29 -37t-34 -18t-34 -4.5q-8 0 -20 2.5t-24.5 6t-24.5 7.5t-19 6q-17 6 -37 11.5t-36 -3.5q-6 -3 -10.5 -9t-8 -12t-5.5 -10.5t-2 -5.5h-62q2 31 14 54t28.5 38.5t35.5 23t36 7.5q12 0 21.5 -1.5t17.5 -3.5t17 -5.5t20 -7.5q5 -2 13 -5t17 -6
t17.5 -5.5t13.5 -2.5q21 0 33 11t17 31h65zM191 506h2q11 24 26.5 38.5t32 22t32 10t26.5 2.5q28 0 52 -8.5t42 -26t27.5 -44.5t8.5 -65v-435h-130v376q0 42 -9 66.5t-46 26.5q-37 1 -51.5 -29t-12.5 -75v-365h-130v564h130v-58z" />
    <glyph glyph-name="ograve" unicode="&#xf2;" 
d="M240 775l94 -146h-101l-148 146h155zM183 184q0 -26 2 -44.5t9 -30.5t20.5 -18t37.5 -6q22 0 35 6t20 18t8.5 30.5t1.5 44.5v188q0 20 -1 39t-7 34t-19.5 24.5t-37.5 9.5q-26 0 -40 -9.5t-20.5 -24.5t-7.5 -34t-1 -39v-188zM252 -15q-64 -1 -103.5 14.5t-60.5 49.5
t-28 86.5t-7 126.5q0 72 4 131t22.5 100t58.5 63.5t114 22.5q72 0 111.5 -22.5t58 -63.5t22 -100t3.5 -131q0 -74 -6.5 -126.5t-27.5 -86.5t-59.5 -49.5t-101.5 -14.5z" />
    <glyph glyph-name="oacute" unicode="&#xf3;" 
d="M261 775h155l-148 -146h-101zM183 184q0 -26 2 -44.5t9 -30.5t20.5 -18t37.5 -6q22 0 35 6t20 18t8.5 30.5t1.5 44.5v188q0 20 -1 39t-7 34t-19.5 24.5t-37.5 9.5q-26 0 -40 -9.5t-20.5 -24.5t-7.5 -34t-1 -39v-188zM252 -15q-64 -1 -103.5 14.5t-60.5 49.5t-28 86.5
t-7 126.5q0 72 4 131t22.5 100t58.5 63.5t114 22.5q72 0 111.5 -22.5t58 -63.5t22 -100t3.5 -131q0 -74 -6.5 -126.5t-27.5 -86.5t-59.5 -49.5t-101.5 -14.5z" />
    <glyph glyph-name="ocircumflex" unicode="&#xf4;" 
d="M312 770l115 -146h-114l-63 82l-64 -82h-112l113 146h125zM183 184q0 -26 2 -44.5t9 -30.5t20.5 -18t37.5 -6q22 0 35 6t20 18t8.5 30.5t1.5 44.5v188q0 20 -1 39t-7 34t-19.5 24.5t-37.5 9.5q-26 0 -40 -9.5t-20.5 -24.5t-7.5 -34t-1 -39v-188zM252 -15
q-64 -1 -103.5 14.5t-60.5 49.5t-28 86.5t-7 126.5q0 72 4 131t22.5 100t58.5 63.5t114 22.5q72 0 111.5 -22.5t58 -63.5t22 -100t3.5 -131q0 -74 -6.5 -126.5t-27.5 -86.5t-59.5 -49.5t-101.5 -14.5z" />
    <glyph glyph-name="otilde" unicode="&#xf5;" 
d="M434 744q-7 -38 -20 -61.5t-29 -37t-34 -18t-34 -4.5q-8 0 -20 2.5t-24.5 6t-24.5 7.5t-19 6q-17 6 -37 11.5t-36 -3.5q-6 -3 -10.5 -9t-8 -12t-5.5 -10.5t-2 -5.5h-62q2 31 14 54t28.5 38.5t35.5 23t36 7.5q12 0 21.5 -1.5t17.5 -3.5t17 -5.5t20 -7.5q5 -2 13 -5t17 -6
t17.5 -5.5t13.5 -2.5q21 0 33 11t17 31h65zM183 184q0 -26 2 -44.5t9 -30.5t20.5 -18t37.5 -6q22 0 35 6t20 18t8.5 30.5t1.5 44.5v188q0 20 -1 39t-7 34t-19.5 24.5t-37.5 9.5q-26 0 -40 -9.5t-20.5 -24.5t-7.5 -34t-1 -39v-188zM252 -15q-64 -1 -103.5 14.5t-60.5 49.5
t-28 86.5t-7 126.5q0 72 4 131t22.5 100t58.5 63.5t114 22.5q72 0 111.5 -22.5t58 -63.5t22 -100t3.5 -131q0 -74 -6.5 -126.5t-27.5 -86.5t-59.5 -49.5t-101.5 -14.5z" />
    <glyph glyph-name="odieresis" unicode="&#xf6;" 
d="M89 644v115h127v-115h-127zM284 644v115h128v-115h-128zM183 184q0 -26 2 -44.5t9 -30.5t20.5 -18t37.5 -6q22 0 35 6t20 18t8.5 30.5t1.5 44.5v188q0 20 -1 39t-7 34t-19.5 24.5t-37.5 9.5q-26 0 -40 -9.5t-20.5 -24.5t-7.5 -34t-1 -39v-188zM252 -15
q-64 -1 -103.5 14.5t-60.5 49.5t-28 86.5t-7 126.5q0 72 4 131t22.5 100t58.5 63.5t114 22.5q72 0 111.5 -22.5t58 -63.5t22 -100t3.5 -131q0 -74 -6.5 -126.5t-27.5 -86.5t-59.5 -49.5t-101.5 -14.5z" />
    <glyph glyph-name="divide" unicode="&#xf7;" 
d="M186 377v115h127v-115h-127zM186 6v115h127v-115h-127zM26 304h449v-110h-449v110z" />
    <glyph glyph-name="oslash" unicode="&#xf8;" 
d="M185 142q3 -30 17 -43.5t50 -13.5q22 0 35 6t20 18t8.5 30.5t1.5 44.5v154h-2zM315 414q-2 27 -14.5 46t-48.5 19q-26 0 -40 -9.5t-20.5 -24.5t-7.5 -34t-1 -39v-153h2zM443 617l49 -35l-66 -99q16 -41 18.5 -96.5t2.5 -124.5q0 -74 -6.5 -126.5t-27 -86.5t-59 -49.5
t-101.5 -14.5q-94 -1 -139 35l-54 -78l-53 34l69 99q-14 34 -19 80.5t-4 106.5q0 72 4 131t23 100t59 63.5t113 22.5q49 0 82.5 -10t55.5 -30z" />
    <glyph glyph-name="ugrave" unicode="&#xf9;" 
d="M240 775l94 -146h-101l-148 146h155zM307 84h-2q-29 -98 -121 -99q-39 0 -63.5 9.5t-38.5 28.5t-19 46.5t-5 62.5v432h130v-386q0 -19 1 -38.5t12 -36.5q16 -18 40 -18q23 0 35 11.5t17.5 28.5t6.5 36.5t1 36.5v366h130v-564h-124v84z" />
    <glyph glyph-name="uacute" unicode="&#xfa;" 
d="M261 775h155l-148 -146h-101zM307 84h-2q-29 -98 -121 -99q-39 0 -63.5 9.5t-38.5 28.5t-19 46.5t-5 62.5v432h130v-386q0 -19 1 -38.5t12 -36.5q16 -18 40 -18q23 0 35 11.5t17.5 28.5t6.5 36.5t1 36.5v366h130v-564h-124v84z" />
    <glyph glyph-name="ucircumflex" unicode="&#xfb;" 
d="M312 780l115 -146h-114l-63 82l-64 -82h-112l113 146h125zM307 84h-2q-29 -98 -121 -99q-39 0 -63.5 9.5t-38.5 28.5t-19 46.5t-5 62.5v432h130v-386q0 -19 1 -38.5t12 -36.5q16 -18 40 -18q23 0 35 11.5t17.5 28.5t6.5 36.5t1 36.5v366h130v-564h-124v84z" />
    <glyph glyph-name="udieresis" unicode="&#xfc;" 
d="M89 644v115h127v-115h-127zM284 644v115h128v-115h-128zM307 84h-2q-29 -98 -121 -99q-39 0 -63.5 9.5t-38.5 28.5t-19 46.5t-5 62.5v432h130v-386q0 -19 1 -38.5t12 -36.5q16 -18 40 -18q23 0 35 11.5t17.5 28.5t6.5 36.5t1 36.5v366h130v-564h-124v84z" />
    <glyph glyph-name="yacute" unicode="&#xfd;" horiz-adv-x="444" 
d="M233 775h155l-148 -146h-101zM142 564l57 -299q7 -38 11 -75t8 -75h2q3 37 8 73.5t12 72.5l57 303h132l-137 -572q-12 -48 -22 -86t-30.5 -62.5t-58.5 -34t-105 0.5v101q8 0 21 -1t25.5 0t21.5 6.5t9 19.5q0 15 -4 36t-8 36l-136 556h137z" />
    <glyph glyph-name="thorn" unicode="&#xfe;" 
d="M308 382q0 42 -12.5 69.5t-46.5 27.5q-20 0 -32 -9t-18.5 -25.5t-8.5 -39.5t-2 -51v-169q0 -100 63 -100q30 0 43.5 29.5t13.5 79.5v188zM58 750h130v-245h2q18 42 45 58t68 16q31 0 56.5 -10t42.5 -34.5t26.5 -64.5t9.5 -100v-188q0 -37 -5.5 -72.5t-20.5 -63
t-41.5 -44.5t-67.5 -17q-38 0 -65.5 14.5t-47.5 52.5h-2v-241h-130v939z" />
    <glyph glyph-name="ydieresis" unicode="&#xff;" horiz-adv-x="444" 
d="M61 644v115h127v-115h-127zM256 644v115h128v-115h-128zM142 564l57 -299q7 -38 11 -75t8 -75h2q3 37 8 73.5t12 72.5l57 303h132l-137 -572q-12 -48 -22 -86t-30.5 -62.5t-58.5 -34t-105 0.5v101q8 0 21 -1t25.5 0t21.5 6.5t9 19.5q0 15 -4 36t-8 36l-136 556h137z" />
    <glyph glyph-name="dotlessi" unicode="&#x131;" horiz-adv-x="278" 
d="M74 0v564h130v-564h-130z" />
    <glyph glyph-name="Lslash" unicode="&#x141;" 
d="M74 0v290l-74 -59v127l74 59v333h140v-226l103 88v-128l-103 -88v-286h260v-110h-400z" />
    <glyph glyph-name="lslash" unicode="&#x142;" horiz-adv-x="278" 
d="M74 362l-72 -50v95l72 51v292h130v-238l68 48v-96l-68 -48v-416h-130v362z" />
    <glyph glyph-name="OE" unicode="&#x152;" horiz-adv-x="833" 
d="M405 535q0 23 -4.5 45t-15.5 39.5t-29.5 27.5t-47.5 8q-30 -2 -49.5 -18.5t-31.5 -41.5t-17 -56t-7 -62t-1.5 -59t0.5 -47q0 -18 -0.5 -46t1 -58.5t7 -61t17 -55t30.5 -40t48 -15.5q33 0 52.5 10t30 27.5t14 41.5t3.5 52v309zM792 110v-110h-379v73h-2q-13 -23 -31.5 -40
t-37.5 -28.5t-35.5 -17t-26.5 -5.5q-60 0 -99.5 22t-63.5 58t-36 83t-16.5 97.5t-4 100.5t0.5 92q-1 54 8 113t33 107.5t66.5 80.5t109.5 32q36 0 74.5 -17t60.5 -60h2v2l2 -2v59h375v-110h-247v-190h229v-110h-229v-230h247z" />
    <glyph glyph-name="oe" unicode="&#x153;" horiz-adv-x="722" 
d="M548 358v35q0 45 -13 65.5t-48 20.5q-21 0 -33 -10t-17.5 -25t-6.5 -33t-1 -33v-20h119zM176 215q0 -44 4 -69.5t11.5 -39t18.5 -17.5t27 -4t28.5 5t20.5 19.5t12 41.5t3 72v165q-2 51 -14.5 71t-49.5 20q-35 0 -49 -25t-12 -82v-157zM678 258h-247v-58q0 -35 2.5 -57.5
t9.5 -35t17.5 -17.5t25.5 -5q32 0 47 17.5t15 47.5v42h130q1 -110 -45 -158.5t-158 -48.5q-30 0 -60 13.5t-50 39.5q-29 -30 -63 -41.5t-57 -11.5q-64 -1 -103.5 14.5t-60.5 49.5t-28 86.5t-7 126.5q0 72 4 131t22.5 100.5t58.5 64t114 21.5q34 -1 61 -13t59 -44
q25 35 62.5 46t75.5 11q11 0 27.5 -1.5t34.5 -7t35.5 -16t29.5 -27.5q26 -37 37 -78.5t11 -85.5v-105z" />
    <glyph glyph-name="Scaron" unicode="&#x160;" horiz-adv-x="556" 
d="M340 800h-125l-113 146h112l64 -82l63 82h114zM354 522q0 25 -2 49t-10 42.5t-24.5 30t-45.5 11.5q-35 0 -56 -16t-21 -54q0 -21 6.5 -36.5t17 -27.5t25 -22.5t31.5 -20.5q17 -11 40.5 -26t47.5 -32t45.5 -34t36.5 -31q36 -35 49.5 -71.5t13.5 -85.5q0 -53 -17 -93.5
t-47.5 -67.5t-73 -41t-93.5 -14q-63 0 -106.5 17t-70.5 47t-39 72t-12 92v55h140v-44q-2 -55 17 -90.5t71 -35.5q87 0 87 88q0 33 -14.5 56.5t-41.5 42.5q-27 21 -57 40.5t-59.5 39.5t-56.5 42.5t-48 50.5q-36 53 -36 115q0 97 54 147.5t166 50.5q56 0 93.5 -13t62 -34.5
t37 -48t18 -54t6.5 -53t1 -43.5h-135z" />
    <glyph glyph-name="scaron" unicode="&#x161;" horiz-adv-x="444" 
d="M274 614h-125l-113 146h112l64 -82l63 82h114zM159 186q-4 -39 1 -59.5t14 -30t21.5 -10.5t23.5 -1q28 0 44.5 18t9.5 45q-1 12 -7.5 21.5t-16 17.5t-20.5 15t-20 13l-71 49q-49 34 -78 75.5t-29 102.5q0 66 50 101.5t144 35.5q95 0 139 -48t42 -139h-130q2 48 -12 67.5
t-48 19.5q-23 0 -39 -11t-16 -35q0 -25 15 -38.5t34 -26.5l106 -72q12 -7 27 -20t28.5 -28.5t22.5 -32t11 -30.5q4 -37 -0.5 -72.5t-24.5 -64t-60.5 -46t-107.5 -17.5q-26 0 -60 7t-63 29t-47.5 61t-12.5 104h130z" />
    <glyph glyph-name="Ydieresis" unicode="&#x178;" horiz-adv-x="556" 
d="M117 830v115h127v-115h-127zM312 830v115h128v-115h-128zM244 553q11 -28 19.5 -56.5t13.5 -58.5h2q8 44 20.5 77t25.5 65l67 170h153l-198 -431v-319h-140v319l-195 431h153z" />
    <glyph glyph-name="Zcaron" unicode="&#x17d;" 
d="M312 800h-125l-113 146h112l64 -82l63 82h114zM33 112l241 465q9 17 17.5 33.5t21.5 32.5q-14 -2 -27 -2.5t-27 -0.5h-210v110h410v-112l-241 -465q-9 -17 -17.5 -33.5t-21.5 -32.5q14 2 27 2.5t27 0.5h235v-110h-435v112z" />
    <glyph glyph-name="zcaron" unicode="&#x17e;" horiz-adv-x="389" 
d="M256 614h-125l-113 146h112l64 -82l63 82h114zM161 100h206v-100h-344v102l198 362h-194v100h340v-93z" />
    <glyph glyph-name="florin" unicode="&#x192;" 
d="M470 644q-10 5 -20.5 8.5t-21.5 3.5q-27 0 -41.5 -12t-21.5 -30.5t-10 -41t-6 -42.5l-5 -31h111v-95h-124l-48 -295q-9 -54 -22.5 -115t-38.5 -109q-18 -35 -53.5 -52.5t-72.5 -17.5q-23 0 -44 3.5t-43 8.5l17 108q9 -7 21 -11t24 -3.5t22.5 6t16.5 17.5q10 20 14.5 40.5
t8.5 41.5l65 378h-111v95h126l16 78q7 37 19.5 71t33.5 59.5t51.5 40.5t73.5 15q20 0 39.5 -4.5t38.5 -9.5q2 -1 3 -1q2 0 4 -1z" />
    <glyph glyph-name="circumflex" unicode="&#x2c6;" horiz-adv-x="333" 
d="M228 790l115 -146h-114l-63 82l-64 -82h-112l113 146h125z" />
    <glyph glyph-name="caron" unicode="&#x2c7;" horiz-adv-x="333" 
d="M228 634h-125l-113 146h112l64 -82l63 82h114z" />
    <glyph glyph-name="breve" unicode="&#x2d8;" horiz-adv-x="333" 
d="M335 780q-9 -71 -53 -108t-115 -37q-41 0 -72.5 11t-53 30t-32.5 45.5t-10 58.5h65q4 -36 31 -53t67 -17q54 0 78.5 17t29.5 53h65z" />
    <glyph glyph-name="dotaccent" unicode="&#x2d9;" horiz-adv-x="333" 
d="M103 644v115h127v-115h-127z" />
    <glyph glyph-name="ring" unicode="&#x2da;" horiz-adv-x="333" 
d="M167 796q-24 0 -41 -17t-17 -41q0 -23 17.5 -40t40.5 -17t40.5 17t17.5 40t-17.5 40.5t-40.5 17.5zM167 632q-22 0 -41.5 8.5t-34 23t-23 33.5t-8.5 41t8.5 41.5t23 34t34 23t41.5 8.5t41.5 -8.5t33.5 -23t22.5 -34t8.5 -41.5q0 -45 -30.5 -75.5t-75.5 -30.5z" />
    <glyph glyph-name="ogonek" unicode="&#x2db;" horiz-adv-x="333" 
d="M278 -190q-9 -5 -30 -10t-44 -5t-44 6t-37 18t-25.5 30.5t-9.5 44.5q0 18 8 33.5t20 28.5t26.5 24t28.5 20h68v-2q-23 -12 -43 -34t-20 -42q0 -19 13.5 -31.5t32.5 -12.5q14 0 28.5 6.5t27.5 11.5v-86z" />
    <glyph glyph-name="tilde" unicode="&#x2dc;" horiz-adv-x="333" 
d="M350 764q-7 -38 -20 -61.5t-29 -37t-34 -18t-34 -4.5q-8 0 -20 2.5t-24.5 6t-24.5 7.5t-19 6q-17 6 -37 11.5t-36 -3.5q-6 -3 -10.5 -9t-8 -12t-5.5 -10.5t-2 -5.5h-62q2 31 14 54t28.5 38.5t35.5 23t36 7.5q12 0 21.5 -1.5t17.5 -3.5t17 -5.5t20 -7.5q5 -2 13 -5t17 -6
t17.5 -5.5t13.5 -2.5q21 0 33 11t17 31h65z" />
    <glyph glyph-name="hungarumlaut" unicode="&#x2dd;" horiz-adv-x="333" 
d="M292 780h155l-148 -146h-101zM77 780h155l-148 -146h-101z" />
    <glyph glyph-name="endash" unicode="&#x2013;" 
d="M0 259v110h500v-110h-500z" />
    <glyph glyph-name="emdash" unicode="&#x2014;" horiz-adv-x="1000" 
d="M0 259v110h1000v-110h-1000z" />
    <glyph glyph-name="quoteleft" unicode="&#x2018;" horiz-adv-x="278" 
d="M197 720q-32 -5 -49 -27t-15 -68h64v-130h-121v119q0 67 25.5 104t95.5 48v-46z" />
    <glyph glyph-name="quoteright" unicode="&#x2019;" horiz-adv-x="278" 
d="M81 525q32 5 49 27t15 68h-64v130h121v-119q0 -67 -25.5 -104t-95.5 -48v46z" />
    <glyph glyph-name="quotesinglbase" unicode="&#x201a;" horiz-adv-x="278" 
d="M87 -92q20 4 33 12t19.5 19.5t9 27t1.5 35.5h-63v130h120v-119q0 -34 -5.5 -59.5t-19.5 -43.5t-37 -29.5t-58 -18.5v46z" />
    <glyph glyph-name="quotedblleft" unicode="&#x201c;" 
d="M405 720q-32 -5 -49 -27t-15 -68h64v-130h-121v119q0 67 25.5 104t95.5 48v-46zM208 720q-32 -5 -49 -27t-15 -68h64v-130h-121v119q0 67 25.5 104t95.5 48v-46z" />
    <glyph glyph-name="quotedblright" unicode="&#x201d;" 
d="M95 525q32 5 49 27t15 68h-64v130h121v-119q0 -67 -25.5 -104t-95.5 -48v46zM292 525q32 5 49 27t15 68h-64v130h121v-119q0 -67 -25.5 -104t-95.5 -48v46z" />
    <glyph glyph-name="quotedblbase" unicode="&#x201e;" 
d="M96 -92q20 4 33 12t19.5 19.5t9 27t1.5 35.5h-63v130h120v-119q0 -34 -5.5 -59.5t-19.5 -43.5t-37 -29.5t-58 -18.5v46zM293 -92q16 4 29 10t23 20q8 15 9.5 31t1.5 33h-63v130h120v-119q0 -34 -5.5 -59.5t-19.5 -43.5t-37 -29.5t-58 -18.5v46z" />
    <glyph glyph-name="dagger" unicode="&#x2020;" 
d="M37 422v112h151v234h128v-234h147v-112h-147v-577h-128v577h-151z" />
    <glyph glyph-name="daggerdbl" unicode="&#x2021;" 
d="M35 77v113h153v230h-153v113h153v235h128v-235h150v-113h-150v-230h150v-113h-150v-238h-128v238h-153z" />
    <glyph glyph-name="bullet" unicode="&#x2022;" horiz-adv-x="420" 
d="M398 375q0 -39 -15 -73.5t-40.5 -60t-60 -40.5t-73.5 -15t-73 15t-59.5 40.5t-40 60t-14.5 73.5t14.5 73t40 59.5t59.5 40t73 14.5t73.5 -14.5t60 -40t40.5 -59.5t15 -73z" />
    <glyph glyph-name="ellipsis" unicode="&#x2026;" horiz-adv-x="1000" 
d="M434 0v132h132v-132h-132zM767 0v132h132v-132h-132zM101 0v132h132v-132h-132z" />
    <glyph glyph-name="perthousand" unicode="&#x2030;" horiz-adv-x="1111" 
d="M580 293q-22 0 -33.5 -8t-17 -22t-6.5 -34.5t-1 -45.5t1 -45.5t6.5 -34.5t17 -22t33.5 -8q21 0 33 8t17 22t6 34.5t1 45.5t-1 45.5t-6 34.5t-17 22t-33 8zM175 663q-22 0 -33.5 -8t-17 -22t-6.5 -34.5t-1 -45.5t1 -45.5t6.5 -34.5t17 -22t33.5 -8q21 0 33 8t17 22t6 34.5
t1 45.5t-1 45.5t-6 34.5t-17 22t-33 8zM938 293q-22 0 -33.5 -8t-17 -22t-6.5 -34.5t-1 -45.5t1 -45.5t6.5 -34.5t17 -22t33.5 -8q21 0 33 8t17 22t6 34.5t1 45.5t-1 45.5t-6 34.5t-17 22t-33 8zM173 -18l339 766h72l-338 -766h-73zM937 366q55 0 86 -15t46 -40.5
t18.5 -58.5t3.5 -69t-3.5 -69t-18.5 -58.5t-46 -40.5t-86 -15q-54 0 -84.5 15t-46 40.5t-19 58.5t-3.5 69t3.5 69t19 58.5t46 40.5t84.5 15zM174 736q55 0 86 -15t46 -40.5t18.5 -58.5t3.5 -69t-3.5 -69t-18.5 -58.5t-46 -40.5t-86 -15q-54 0 -84.5 15t-46 40.5t-19 58.5
t-3.5 69t3.5 69t19 58.5t46 40.5t84.5 15zM579 366q55 0 86 -15t46 -40.5t18.5 -58.5t3.5 -69t-3.5 -69t-18.5 -58.5t-46 -40.5t-86 -15q-54 0 -84.5 15t-46 40.5t-19 58.5t-3.5 69t3.5 69t19 58.5t46 40.5t84.5 15z" />
    <glyph glyph-name="guilsinglleft" unicode="&#x2039;" horiz-adv-x="278" 
d="M58 204v102l157 141v-112l-95 -75l95 -85v-113z" />
    <glyph glyph-name="guilsinglright" unicode="&#x203a;" horiz-adv-x="278" 
d="M63 175l94 81l-94 79v112l157 -141v-102l-157 -142v113z" />
    <glyph glyph-name="fraction" unicode="&#x2044;" horiz-adv-x="167" 
d="M-169 0l425 738h75l-425 -738h-75z" />
    <glyph glyph-name="fraction" unicode="&#x2215;" horiz-adv-x="167" 
d="M-169 0l425 738h75l-425 -738h-75z" />
    <glyph glyph-name="trademark" unicode="&#x2122;" horiz-adv-x="860" 
d="M310 672h-115v-326h-80v326h-114v78h309v-78zM774 346h-80v326h-2l-105 -326h-47l-105 326h-2v-326h-80v404h129l81 -239h2l80 239h129v-404z" />
    <glyph glyph-name="minus" unicode="&#x2212;" 
d="M26 304h449v-110h-449v110z" />
    <glyph glyph-name="fi" unicode="&#xfb01;" 
d="M446 632h-130v118h130v-118zM446 0h-130v564h130v-564zM246 646q-8 2 -15.5 4t-13.5 2q-27 0 -27 -22v-66h56v-95h-56v-469h-130v469h-50v95h50v56q0 38 8 63t25 40t42.5 21t61.5 6h49v-104z" />
    <glyph glyph-name="fl" unicode="&#xfb02;" 
d="M443 0h-130v750h130v-750zM10 469v95h50v56q0 38 8 63t25 40t42.5 21t61.5 6h49v-104q-8 2 -15.5 4t-13.5 2q-27 0 -27 -22v-66h56v-95h-56v-469h-130v469h-50z" />
    <glyph glyph-name="nonbreakingspace" horiz-adv-x="250" 
 />
    </font>
</defs>
</svg>
